<?xml version="1.0" encoding="UTF-8"?>
<svg id="Layer_2" xmlns="http://www.w3.org/2000/svg" viewBox="0 0 250.03 250.03">
  <g id="Layer_1-2" data-name="Layer_1">
    <g>
      <path d="M232.94,2.94c-26.04,26.04-52.08,52.08-78.12,78.12-41.19,41.19-82.37,82.37-123.56,123.56-9.44,9.44-18.88,18.88-28.32,28.32s5.03,23.26,14.14,14.14c26.04-26.04,52.08-52.08,78.12-78.12,41.19-41.19,82.37-82.37,123.56-123.56,9.44-9.44,18.88-18.88,28.32-28.32,9.11-9.11-5.03-23.26-14.14-14.14h0Z"/>
      <path d="M2.94,17.09c26.04,26.04,52.08,52.08,78.12,78.12,41.19,41.19,82.37,82.37,123.56,123.56l28.32,28.32c9.11,9.11,23.26-5.03,14.14-14.14-26.04-26.04-52.08-52.08-78.12-78.12C127.78,113.64,86.59,72.45,45.41,31.27,35.97,21.83,26.53,12.38,17.09,2.94S-6.17,7.97,2.94,17.09h0Z"/>
    </g>
  </g>
</svg>