<?xml version="1.0" encoding="UTF-8"?>
<svg id="Layer_1" data-name="Layer 1" xmlns="http://www.w3.org/2000/svg" width="1000" height="1000" viewBox="0 0 1000 1000">
  <defs>
    <style>
      .cls-1 {
        fill: #151515;
      }

      .cls-1, .cls-2 {
        stroke-width: 0px;
      }

      .cls-2 {
        fill: #888;
      }
    </style>
  </defs>
  <g>
    <path class="cls-1" d="m378.83,331.86c-3.62,2.62-7.42,4.13-11.41,4.53-3.99.4-7.83-.29-11.52-2.06-3.69-1.77-6.88-4.52-9.58-8.25-2.75-3.8-4.38-7.72-4.89-11.76-.52-4.04.02-7.89,1.59-11.54,1.57-3.65,4.18-6.79,7.8-9.41,3.63-2.62,7.42-4.11,11.38-4.46,3.97-.35,7.78.35,11.44,2.12,3.66,1.76,6.84,4.53,9.57,8.29,2.72,3.76,4.35,7.67,4.9,11.71.54,4.04.03,7.88-1.54,11.5-1.57,3.63-4.15,6.74-7.74,9.33Zm-3.41-4.83c2.52-1.83,4.31-4.07,5.36-6.72,1.06-2.65,1.35-5.47.88-8.43-.46-2.96-1.72-5.87-3.78-8.71-2.03-2.81-4.4-4.9-7.1-6.27-2.7-1.37-5.48-1.97-8.35-1.79-2.87.19-5.59,1.2-8.15,3.05-2.55,1.85-4.38,4.12-5.47,6.8-1.09,2.68-1.4,5.52-.94,8.51.46,2.99,1.71,5.9,3.74,8.7,2.05,2.84,4.43,4.94,7.14,6.28,2.7,1.35,5.51,1.91,8.42,1.7,2.91-.21,5.66-1.25,8.25-3.13Z"/>
    <path class="cls-1" d="m413.86,310.03l-15.92-43.19,6.05-2.23,15.92,43.19-6.05,2.23Zm-.48-18.61l-2.05-5.55,9.5-3.5c1.48-.54,2.68-1.37,3.61-2.48.92-1.11,1.53-2.38,1.82-3.82.29-1.44.16-2.9-.39-4.38-.85-2.3-2.34-3.88-4.47-4.73-2.13-.85-4.48-.8-7.03.14l-8.76,3.23-2.05-5.55,8.93-3.36c2.86-1.1,5.61-1.48,8.23-1.14,2.62.34,4.94,1.29,6.93,2.84,2,1.55,3.48,3.65,4.45,6.28.96,2.59,1.13,5.14.54,7.65-.59,2.51-1.83,4.75-3.72,6.73-1.89,1.98-4.27,3.5-7.15,4.56l-8.39,3.09Zm24.6,9.71l-16.75-13.87,3.63-4.98,19.97,16.33-6.85,2.52Z"/>
    <path class="cls-1" d="m464.04,295.12l-7.18-45.46,6.37-1.01,7.19,45.47-6.37,1Z"/>
    <path class="cls-1" d="m513.67,293.3c-4.64-.26-8.7-1.52-12.2-3.76s-6.16-5.2-7.98-8.89c-1.83-3.68-2.62-7.83-2.35-12.42.27-4.68,1.52-8.75,3.76-12.2,2.24-3.45,5.23-6.09,8.95-7.92s7.91-2.61,12.55-2.34c2.54.15,4.95.69,7.25,1.63,2.3.94,4.35,2.18,6.18,3.72,1.82,1.53,3.27,3.25,4.35,5.16l-5.38,3.12c-.8-1.41-1.87-2.68-3.21-3.81-1.34-1.13-2.84-2.04-4.49-2.73-1.65-.69-3.33-1.08-5.04-1.18-3.37-.2-6.4.4-9.09,1.78-2.69,1.38-4.86,3.37-6.5,5.95-1.65,2.59-2.57,5.65-2.77,9.19-.2,3.46.36,6.56,1.67,9.32,1.31,2.75,3.24,4.97,5.81,6.66,2.56,1.69,5.55,2.63,8.96,2.82,2.76.16,5.25-.27,7.49-1.28,2.23-1.01,4.03-2.51,5.39-4.5,1.37-1.98,2.13-4.33,2.28-7.05l6.27-.23c-.24,4.07-1.33,7.57-3.27,10.48-1.94,2.92-4.52,5.12-7.72,6.6-3.2,1.48-6.84,2.11-10.91,1.87Zm4.45-18.98l.31-5.39,17.4,1-.27,4.73-3.32.46-14.12-.81Z"/>
    <path class="cls-1" d="m551.79,298.61l12.16-44.4,6.21,1.7-12.16,44.4-6.22-1.7Z"/>
    <path class="cls-1" d="m579.54,306.9l21.51-40.7,5.87,3.1-2.69,4.68-18.99,35.93-5.7-3.01Zm28.89,15.27l-7.74-52.06,6.22-.8,7.77,52.01-6.26.86Zm0,0l21.51-40.7,5.76,3.04-21.51,40.7-5.76-3.04Z"/>
    <path class="cls-1" d="m667.11,358.05c-.85-1-1.38-2.13-1.57-3.37-.2-1.24-.09-2.46.32-3.64.41-1.18,1.11-2.2,2.12-3.05,1-.85,2.12-1.38,3.35-1.59,1.23-.21,2.42-.11,3.59.32,1.16.42,2.17,1.13,3.02,2.14.85,1,1.39,2.12,1.64,3.35.24,1.23.16,2.44-.25,3.62-.41,1.18-1.11,2.2-2.12,3.05-1,.85-2.12,1.38-3.35,1.59-1.23.21-2.45.11-3.66-.3-1.21-.41-2.24-1.12-3.09-2.12Z"/>
    <path class="cls-1" d="m696.3,434.6c-1.41-4.15-1.71-8.17-.87-12.07.83-3.89,2.62-7.33,5.38-10.3,2.76-2.98,6.34-5.22,10.74-6.71,4.4-1.5,8.6-1.91,12.6-1.23s7.51,2.28,10.53,4.82c3.02,2.54,5.23,5.88,6.65,10.03.91,2.7,1.3,5.44,1.16,8.22-.14,2.78-.75,5.43-1.81,7.94-1.07,2.52-2.57,4.68-4.5,6.5l-4.35-4.63c1.43-1.37,2.54-2.95,3.31-4.74.78-1.79,1.23-3.67,1.35-5.63.12-1.96-.14-3.88-.77-5.74-.99-2.91-2.6-5.25-4.83-7.04-2.23-1.79-4.83-2.9-7.8-3.32-2.97-.43-6.12-.07-9.43,1.06-3.32,1.13-6.05,2.78-8.17,4.97s-3.52,4.67-4.16,7.46c-.65,2.79-.47,5.66.53,8.61.65,1.91,1.65,3.58,3,5.02s2.92,2.61,4.73,3.5c1.8.89,3.72,1.45,5.75,1.69l-.56,6.31c-2.72-.23-5.32-.99-7.79-2.28-2.48-1.29-4.65-3-6.5-5.12-1.86-2.12-3.25-4.55-4.18-7.29Z"/>
    <path class="cls-1" d="m706.6,490.99c-.2-4.47.64-8.48,2.51-12.02s4.55-6.37,8.05-8.48c3.51-2.11,7.57-3.26,12.16-3.45,4.69-.2,8.86.59,12.51,2.39,3.66,1.8,6.57,4.36,8.76,7.68,2.18,3.33,3.38,7.23,3.57,11.69.2,4.47-.65,8.45-2.54,11.96-1.89,3.51-4.57,6.3-8.06,8.38-3.49,2.08-7.55,3.22-12.19,3.43-4.65.2-8.8-.59-12.48-2.36-3.68-1.77-6.6-4.31-8.75-7.62-2.16-3.31-3.34-7.17-3.53-11.6Zm5.91-.19c.13,3.11,1.02,5.83,2.66,8.18,1.63,2.34,3.82,4.13,6.55,5.38,2.73,1.24,5.85,1.79,9.35,1.64,3.46-.15,6.51-.97,9.14-2.47,2.63-1.5,4.66-3.5,6.09-5.99,1.43-2.5,2.07-5.32,1.93-8.48-.13-3.15-1.02-5.92-2.66-8.31s-3.83-4.21-6.59-5.47c-2.76-1.26-5.86-1.82-9.32-1.67-3.5.15-6.56.99-9.17,2.5s-4.63,3.55-6.05,6.09c-1.43,2.54-2.07,5.41-1.93,8.61Z"/>
    <path class="cls-1" d="m697.94,563.86l44.61,11.34-1.61,6.31-44.61-11.33,1.6-6.31Zm0,0l48.78-19.77,2.24,5.86-48.72,19.78-2.31-5.88Zm8.05-31.68l44.62,11.34-1.64,6.44-5.18-1.52-39.39-10.01,1.59-6.25Z"/>
    <path class="cls-1" d="m679.41,602.8c1.22-2.13,2.57-3.92,4.05-5.37,1.49-1.45,3.02-2.57,4.61-3.36,1.58-.79,3.15-1.3,4.69-1.52,1.54-.23,3-.18,4.38.15l-1.32,6.44c-1.89-.32-3.86,0-5.91.94s-3.76,2.57-5.13,4.88c-1.61,2.82-2.31,5.35-2.11,7.61.2,2.26,1.23,3.92,3.09,4.98,1.71.98,3.52,1.07,5.41.28,1.89-.79,3.78-2.18,5.68-4.18l3.84-3.94c1.54-1.55,3.19-2.81,4.97-3.79,1.77-.98,3.61-1.51,5.52-1.58,1.91-.07,3.85.45,5.83,1.59,3.66,2.09,5.83,4.9,6.53,8.46s-.23,7.58-2.8,12.07c-1.48,2.59-3.17,4.6-5.07,6.04-1.9,1.43-3.87,2.39-5.91,2.87-2.04.48-4.01.52-5.91.15l1.27-6.47c2.08.33,4.09.01,6.03-.95,1.94-.96,3.56-2.59,4.86-4.87,1.37-2.4,1.88-4.62,1.53-6.66-.35-2.04-1.51-3.63-3.5-4.76-1.68-.96-3.27-1.15-4.79-.57s-3.02,1.65-4.52,3.21l-3.79,3.98c-3.04,3.21-6.2,5.23-9.47,6.06-3.28.83-6.17.53-8.68-.91-2.17-1.24-3.81-2.89-4.93-4.97-1.12-2.07-1.57-4.45-1.38-7.14.2-2.69,1.17-5.57,2.93-8.66Z"/>
    <path class="cls-1" d="m647.59,644.45c2.47-2.55,5.17-4.28,8.1-5.2,2.93-.92,5.87-.99,8.81-.21s5.66,2.37,8.15,4.78l-4.48,4.63c-1.64-1.59-3.43-2.63-5.38-3.15-1.95-.51-3.87-.48-5.77.09-1.9.57-3.64,1.68-5.22,3.32-1.58,1.64-2.64,3.42-3.17,5.35-.53,1.93-.5,3.85.09,5.77.59,1.91,1.7,3.66,3.34,5.25l-4.53,4.68c-2.49-2.41-4.16-5.08-5.01-8.01-.86-2.93-.86-5.89,0-8.88.85-2.99,2.54-5.79,5.07-8.41Zm4.47,20.62l21.16,20.49-4.53,4.68-21.17-20.49,4.53-4.68Zm20.58-21.26l21.17,20.49-4.48,4.63-21.17-20.49,4.48-4.63Z"/>
    <path class="cls-1" d="m614.05,673.53l3.1,5.04-19.49,11.99-3.1-5.04,19.49-11.99Zm4.2-2.58l24.12,39.2-5.49,3.38-24.12-39.2,5.49-3.38Z"/>
    <path class="cls-1" d="m574.43,693.8l14.51,39.64-6.11,2.24-14.51-39.65,6.12-2.24Zm27.31,32.72l2.03,5.56-33.16,12.14-2.04-5.56,33.16-12.14Z"/>
    <path class="cls-1" d="m537.3,704.21l7.56,45.41-6.35,1.06-7.56-45.41,6.35-1.06Z"/>
    <path class="cls-1" d="m475.93,706.61l-2.38,45.97-6.5-.33,2.38-45.97,6.5.33Zm0,0l28.93,43.97-5.31,3.35-28.94-43.9,5.31-3.42Zm32.64,1.69l-2.39,45.97-6.63-.35.47-5.37,2.1-40.59,6.44.33Z"/>
    <path class="cls-1" d="m428.67,694.23c4.38,1.55,7.93,3.9,10.66,7.03,2.72,3.13,4.46,6.72,5.18,10.77.73,4.05.32,8.24-1.22,12.58-1.57,4.42-3.91,7.97-7.03,10.66-3.11,2.69-6.72,4.39-10.81,5.1-4.09.71-8.32.29-12.71-1.26-2.39-.85-4.56-2.05-6.5-3.6-1.94-1.55-3.57-3.31-4.89-5.29-1.33-1.98-2.23-4.04-2.73-6.17l6.04-1.49c.38,1.57,1.05,3.09,2.02,4.55.97,1.46,2.16,2.75,3.54,3.88,1.39,1.12,2.9,1.97,4.51,2.54,3.18,1.13,6.26,1.41,9.23.83,2.97-.58,5.61-1.87,7.91-3.9,2.3-2.02,4.04-4.7,5.23-8.05,1.16-3.26,1.49-6.4,1-9.41-.5-3.01-1.73-5.68-3.72-8.02-1.99-2.33-4.59-4.07-7.81-5.21-2.6-.93-5.12-1.21-7.54-.86-2.43.35-4.57,1.28-6.44,2.81-1.87,1.53-3.25,3.57-4.16,6.13l-6.09-1.53c1.37-3.84,3.39-6.89,6.07-9.15s5.78-3.65,9.27-4.18c3.49-.53,7.16-.11,11,1.25Zm-9.58,16.98l-1.8,5.08-16.42-5.83,1.58-4.46,3.31.48,13.33,4.73Z"/>
    <path class="cls-1" d="m355.55,648.23c3.36,3.21,5.65,6.8,6.86,10.77,1.2,3.97,1.31,7.95.32,11.94-.99,3.99-3.08,7.65-6.26,10.98-3.24,3.39-6.83,5.68-10.78,6.85-3.94,1.17-7.92,1.25-11.94.23-4.02-1.02-7.72-3.14-11.08-6.35-1.84-1.76-3.33-3.74-4.46-5.94-1.13-2.2-1.9-4.48-2.29-6.83-.4-2.35-.39-4.6.03-6.75l6.12,1.12c-.3,1.59-.31,3.25-.02,4.98.29,1.73.84,3.39,1.65,4.99.81,1.6,1.83,2.98,3.07,4.16,2.44,2.33,5.14,3.84,8.08,4.53,2.95.69,5.88.59,8.81-.32,2.93-.9,5.61-2.64,8.07-5.21,2.39-2.51,3.98-5.23,4.77-8.18s.75-5.89-.11-8.84c-.86-2.94-2.52-5.59-4.99-7.95-2-1.91-4.18-3.2-6.53-3.87-2.36-.67-4.7-.7-7.03-.07-2.32.63-4.43,1.92-6.31,3.89l-4.93-3.89c2.82-2.95,5.91-4.9,9.29-5.86,3.37-.96,6.76-.97,10.16-.03,3.4.95,6.57,2.83,9.52,5.64Zm-15.68,11.57l-3.73,3.9-12.6-12.03,3.27-3.42,2.83,1.8,10.22,9.77Z"/>
    <path class="cls-1" d="m311.14,623.49l-5.07,3.05-5.22-8.68c-.81-1.35-1.85-2.38-3.11-3.08-1.27-.7-2.63-1.05-4.09-1.07-1.47-.01-2.88.39-4.23,1.2-2.1,1.27-3.37,3.03-3.81,5.28-.43,2.26.05,4.55,1.45,6.88l4.81,8-5.07,3.05-4.97-8.14c-1.62-2.61-2.51-5.23-2.66-7.88-.16-2.64.34-5.09,1.5-7.34,1.15-2.25,2.93-4.1,5.33-5.55,2.37-1.42,4.84-2.08,7.41-1.96,2.57.11,5.01.91,7.31,2.39,2.3,1.48,4.24,3.54,5.82,6.17l4.61,7.66Zm18.19-3.95l-39.45,23.72-3.32-5.52,39.45-23.72,3.32,5.52Zm-13.25-22.04l-10.49,19.05-5.57-2.63,12.3-22.67,3.76,6.25Z"/>
    <path class="cls-1" d="m300.22,554.68c1.19,4.31,1.27,8.41.24,12.28-1.02,3.87-3.01,7.23-5.96,10.06s-6.65,4.86-11.08,6.08c-4.52,1.24-8.77,1.4-12.73.46-3.96-.93-7.38-2.78-10.25-5.54-2.87-2.76-4.9-6.29-6.09-10.6-1.19-4.31-1.25-8.39-.19-12.23,1.06-3.84,3.05-7.16,5.99-9.97,2.94-2.81,6.64-4.83,11.12-6.05,4.48-1.23,8.71-1.39,12.69-.48,3.98.91,7.39,2.73,10.23,5.47,2.85,2.74,4.85,6.25,6.02,10.52Zm-5.72,1.5c-.82-3-2.29-5.46-4.41-7.38-2.12-1.92-4.65-3.18-7.58-3.78-2.94-.6-6.1-.44-9.48.49-3.34.92-6.13,2.4-8.37,4.44-2.23,2.05-3.76,4.45-4.6,7.2-.83,2.75-.84,5.65,0,8.7s2.32,5.55,4.45,7.51c2.13,1.96,4.68,3.25,7.64,3.87,2.97.62,6.12.47,9.46-.45,3.38-.93,6.18-2.42,8.39-4.48,2.2-2.06,3.72-4.49,4.54-7.28.83-2.79.82-5.74-.03-8.82Z"/>
    <path class="cls-1" d="m275.27,514.72l-29.46-.41.09-6.44,29.46.41-.09,6.44Zm.41-29.59l-29.46-.41.09-6.51,29.46.41-.09,6.51Zm17.39,11.95c-.05,3.55-.83,6.66-2.33,9.34-1.5,2.68-3.59,4.74-6.27,6.2-2.68,1.45-5.74,2.16-9.2,2.11l.09-6.44c2.28.03,4.3-.44,6.07-1.4,1.77-.96,3.15-2.3,4.13-4.02.99-1.72,1.5-3.72,1.53-6,.03-2.28-.42-4.3-1.36-6.07-.94-1.77-2.28-3.14-4.02-4.13-1.74-.99-3.75-1.5-6.03-1.53l.09-6.51c3.46.05,6.51.85,9.14,2.4,2.63,1.55,4.66,3.7,6.09,6.46,1.43,2.76,2.12,5.96,2.07,9.6Z"/>
    <path class="cls-1" d="m295.91,457.76l-44.4-12.14,1.7-6.21,44.4,12.14-1.7,6.22Zm-14.28-10.11l-5.77-1.58,2.83-10.34c.61-2.24.32-4.3-.87-6.17-1.19-1.87-3.03-3.15-5.53-3.83-1.69-.46-3.28-.49-4.78-.08-1.5.41-2.8,1.18-3.91,2.31-1.1,1.13-1.87,2.57-2.3,4.31l-2.5,9.13-5.71-1.56,2.45-9.22c.81-2.96,2.14-5.4,3.98-7.33,1.84-1.93,4.02-3.24,6.53-3.94,2.51-.7,5.16-.67,7.95.09,2.75.75,5.04,2.02,6.87,3.79,1.83,1.78,3.08,3.88,3.73,6.31.65,2.43.61,5-.13,7.7l-2.84,10.4Z"/>
    <path class="cls-1" d="m321.53,372.14c-.77,1.07-1.73,1.85-2.89,2.34-1.16.49-2.36.68-3.61.57-1.24-.11-2.4-.55-3.47-1.31-1.07-.77-1.85-1.72-2.35-2.87-.5-1.14-.69-2.33-.56-3.56s.57-2.38,1.35-3.45c.76-1.07,1.72-1.87,2.86-2.4,1.14-.53,2.33-.74,3.57-.63,1.24.11,2.4.55,3.47,1.31,1.06.77,1.85,1.72,2.35,2.87.5,1.14.7,2.35.59,3.63-.11,1.27-.54,2.44-1.31,3.51Z"/>
  </g>
  <g>
    <path class="cls-2" d="m501.98,550.01c-5.32,0-10.69-.74-15.98-2.24-13.85-3.93-25.42-12.59-32.57-24.38-7.17-11.81-9.05-25.35-5.31-38.12,3.75-12.77,12.67-23.24,25.13-29.47,12.44-6.23,26.91-7.49,40.76-3.56,13.85,3.93,25.42,12.59,32.57,24.38,7.17,11.81,9.05,25.35,5.31,38.12-3.74,12.77-12.67,23.24-25.12,29.47-7.69,3.85-16.16,5.8-24.78,5.8Zm-3.95-98.53c-8.39,0-16.63,1.9-24.12,5.65-12.08,6.05-20.73,16.19-24.36,28.55-3.62,12.36-1.8,25.48,5.15,36.92,6.96,11.47,18.22,19.89,31.7,23.72,13.49,3.83,27.58,2.6,39.68-3.46,12.08-6.05,20.73-16.19,24.36-28.56h0c3.63-12.36,1.8-25.48-5.15-36.92-6.96-11.47-18.22-19.89-31.7-23.72-5.15-1.46-10.38-2.19-15.56-2.19Z"/>
    <path class="cls-2" d="m500.57,552.39c-2.01,0-4.04-.11-6.07-.33-14.33-1.54-27.24-8.41-36.34-19.33-9.1-10.93-13.31-24.6-11.84-38.51s8.44-26.38,19.62-35.12c11.18-8.73,25.22-12.69,39.56-11.15,14.33,1.54,27.24,8.41,36.34,19.33,9.11,10.93,13.31,24.61,11.84,38.52-1.47,13.91-8.44,26.38-19.62,35.12-9.59,7.5-21.3,11.48-33.49,11.48Zm-1.13-103.23c-11.85,0-23.22,3.87-32.55,11.15-10.85,8.48-17.61,20.58-19.04,34.08-1.42,13.49,2.66,26.76,11.49,37.37,8.84,10.61,21.39,17.28,35.32,18.78,13.94,1.51,27.59-2.35,38.45-10.83,10.85-8.48,17.61-20.58,19.04-34.08h0c1.42-13.49-2.66-26.76-11.49-37.37-8.84-10.61-21.39-17.28-35.32-18.78-1.97-.21-3.94-.32-5.9-.32Z"/>
    <path class="cls-2" d="m499.81,555.09c-13.02,0-25.45-4.73-35.35-13.54-10.86-9.66-17.37-23.06-18.34-37.74-.97-14.67,3.72-28.87,13.21-39.96,9.49-11.1,22.65-17.78,37.04-18.8,14.4-1.04,28.31,3.74,39.17,13.4,10.86,9.66,17.37,23.06,18.34,37.74h0c.97,14.67-3.73,28.87-13.21,39.96-9.49,11.1-22.65,17.78-37.04,18.8-1.28.09-2.55.14-3.82.14Zm.39-108.6c-1.23,0-2.47.04-3.71.13-13.97.99-26.74,7.47-35.96,18.25-9.22,10.78-13.78,24.58-12.84,38.84.94,14.26,7.27,27.28,17.81,36.66,10.54,9.38,24.04,13.98,38.01,13.01,13.97-.99,26.74-7.47,35.96-18.25,9.22-10.78,13.78-24.58,12.84-38.84h0c-.94-14.26-7.27-27.28-17.82-36.66-9.61-8.54-21.67-13.14-34.3-13.14Z"/>
    <path class="cls-2" d="m500.16,557.97c-9.76,0-19.39-2.86-27.97-8.43-12.37-8.03-21.11-20.72-24.61-35.75-3.5-15.02-1.34-30.58,6.07-43.81,7.42-13.24,19.22-22.57,33.23-26.26,14.02-3.69,28.56-1.3,40.94,6.74,12.37,8.03,21.11,20.72,24.61,35.75h0c3.5,15.02,1.34,30.58-6.07,43.81-7.42,13.24-19.22,22.57-33.23,26.26-4.3,1.13-8.65,1.69-12.97,1.69Zm-.32-114.32c-4.18,0-8.39.54-12.55,1.64-13.58,3.58-25.02,12.63-32.23,25.49-7.21,12.87-9.31,28.02-5.9,42.65,3.4,14.62,11.9,26.96,23.91,34.76,12,7.79,26.08,10.11,39.65,6.53,13.58-3.58,25.03-12.63,32.23-25.49,7.21-12.87,9.31-28.02,5.9-42.65-3.4-14.62-11.9-26.96-23.92-34.76-8.32-5.4-17.64-8.17-27.1-8.17Z"/>
    <path class="cls-2" d="m501.55,560.84c-6.85,0-13.74-1.48-20.36-4.43-13.58-6.06-24.39-17.62-30.45-32.56-6.05-14.92-6.63-31.42-1.63-46.48,5.01-15.08,15.01-26.9,28.16-33.29,13.18-6.39,27.93-6.57,41.54-.5,13.58,6.06,24.39,17.62,30.45,32.56h0c6.05,14.92,6.63,31.42,1.63,46.48-5.01,15.08-15.01,26.9-28.16,33.29-6.77,3.28-13.95,4.93-21.18,4.93Zm-3.09-120.02c-6.98,0-13.92,1.59-20.45,4.76-12.75,6.19-22.45,17.67-27.31,32.32-4.87,14.68-4.31,30.78,1.59,45.33,5.89,14.54,16.4,25.78,29.58,31.67,13.16,5.87,27.41,5.7,40.14-.48,12.75-6.19,22.45-17.67,27.31-32.32,4.87-14.68,4.31-30.78-1.59-45.33-5.89-14.54-16.4-25.78-29.59-31.67-6.4-2.86-13.06-4.29-19.68-4.29Z"/>
    <path class="cls-2" d="m503.71,563.53c-4.11,0-8.28-.54-12.45-1.64-14.43-3.8-27.1-13.81-35.65-28.19-8.54-14.35-11.97-31.34-9.67-47.84,2.31-16.54,10.1-30.61,21.95-39.64,11.88-9.05,26.39-11.93,40.87-8.12,14.43,3.8,27.09,13.81,35.65,28.19,8.54,14.35,11.97,31.34,9.67,47.84-2.31,16.54-10.1,30.61-21.95,39.64-8.46,6.44-18.25,9.76-28.41,9.76Zm-7.41-125.36c-9.8,0-19.24,3.2-27.39,9.41-11.48,8.75-19.05,22.43-21.29,38.52-2.25,16.12,1.1,32.72,9.45,46.74,8.33,13.99,20.62,23.73,34.62,27.42,13.96,3.68,27.95.9,39.4-7.82,11.48-8.75,19.05-22.43,21.29-38.52,2.25-16.12-1.1-32.72-9.45-46.74-8.33-13.99-20.62-23.73-34.62-27.41-4.02-1.06-8.05-1.58-12.01-1.58Z"/>
    <path class="cls-2" d="m506.35,565.92c-1.39,0-2.8-.06-4.22-.19-14.89-1.31-29.11-9.37-40.03-22.72-10.9-13.31-17.23-30.28-17.82-47.8-.6-17.55,4.63-33.55,14.72-45.07,10.13-11.56,23.93-17.21,38.87-15.89,14.89,1.3,29.1,9.37,40.03,22.71h0c10.9,13.31,17.23,30.28,17.82,47.8.6,17.55-4.63,33.55-14.72,45.07-9.17,10.46-21.35,16.08-34.66,16.08Zm-12.68-130.1c-12.8,0-24.52,5.41-33.35,15.48-9.8,11.17-14.87,26.75-14.29,43.85.58,17.14,6.77,33.74,17.43,46.75,10.62,12.98,24.42,20.82,38.83,22.08,14.36,1.26,27.65-4.18,37.41-15.31,9.8-11.18,14.87-26.75,14.29-43.85-.58-17.14-6.77-33.74-17.43-46.75-10.63-12.98-24.42-20.82-38.83-22.08-1.36-.12-2.71-.18-4.05-.18Z"/>
    <path class="cls-2" d="m509.18,567.93c-13.53,0-27.25-5.74-39.07-16.44-13.04-11.8-22.22-28.23-25.84-46.28-3.63-18.07-1.26-35.6,6.67-49.36,7.97-13.84,20.6-22.21,35.55-23.59,14.9-1.37,30.32,4.4,43.4,16.24h0c13.04,11.8,22.22,28.23,25.84,46.28,3.63,18.07,1.26,35.6-6.67,49.36-7.97,13.84-20.6,22.21-35.55,23.59-1.44.13-2.89.2-4.33.2Zm-18.37-134.07c-1.39,0-2.78.06-4.17.19-14.35,1.32-26.48,9.38-34.16,22.7-7.71,13.39-10.01,30.48-6.46,48.12,3.55,17.67,12.53,33.76,25.29,45.3,12.71,11.5,27.64,17.12,42.04,15.79,14.35-1.32,26.48-9.38,34.16-22.7,7.71-13.39,10.01-30.48,6.46-48.12-3.55-17.67-12.53-33.75-25.29-45.3h0c-11.49-10.4-24.79-15.98-37.87-15.98Z"/>
    <path class="cls-2" d="m512.28,569.5c-10.85,0-22.14-3.63-32.81-10.69-14.89-9.85-26.78-25.21-33.48-43.24-6.71-18.05-7.42-36.64-2.01-52.35,5.45-15.79,16.43-26.78,30.92-30.94,14.46-4.15,30.66-.99,45.61,8.91h0c14.89,9.85,26.78,25.21,33.48,43.24,6.71,18.05,7.42,36.64,2.01,52.35-5.45,15.8-16.43,26.79-30.92,30.94-4.15,1.19-8.44,1.78-12.81,1.78Zm-24.57-137.16c-4.2,0-8.32.56-12.3,1.71-13.9,3.99-24.44,14.56-29.69,29.77-5.28,15.3-4.57,33.45,1.99,51.11,6.57,17.67,18.21,32.71,32.77,42.34,14.5,9.59,30.16,12.67,44.09,8.68,13.9-3.99,24.44-14.56,29.69-29.78,5.28-15.3,4.57-33.45-1.99-51.11-6.57-17.67-18.21-32.71-32.77-42.34h0c-10.36-6.85-21.31-10.38-31.8-10.38Z"/>
    <path class="cls-2" d="m515.32,570.58c-8.18,0-16.77-1.97-25.35-5.89-16.38-7.49-30.76-21.23-40.49-38.7-9.73-17.47-13.66-36.6-11.06-53.86,2.62-17.36,11.52-30.75,25.07-37.71,13.53-6.95,30.06-6.63,46.52.9h0c16.38,7.49,30.76,21.23,40.49,38.7,9.74,17.48,13.66,36.6,11.06,53.86-2.62,17.36-11.52,30.75-25.07,37.71-6.48,3.33-13.65,4.99-21.17,4.99Zm-30.64-139.26c-7.23,0-14.1,1.59-20.31,4.78-13,6.67-21.54,19.57-24.07,36.31-2.54,16.85,1.31,35.55,10.84,52.66,9.54,17.12,23.61,30.58,39.62,37.91,15.93,7.29,31.87,7.62,44.87.93,13-6.67,21.54-19.57,24.07-36.31,2.54-16.84-1.31-35.54-10.84-52.66-9.54-17.12-23.61-30.58-39.62-37.91h0c-8.32-3.81-16.65-5.71-24.56-5.71Z"/>
    <path class="cls-2" d="m517.91,571.18c-5.33,0-10.88-.77-16.56-2.32-17.44-4.77-33.99-16.4-46.61-32.73-12.62-16.33-19.8-35.43-20.23-53.78-.43-18.45,6.01-33.95,18.13-43.64,12.14-9.69,28.48-12.38,46.02-7.58h0c17.44,4.78,33.99,16.4,46.61,32.73,12.62,16.33,19.8,35.43,20.23,53.78.43,18.45-6.01,33.95-18.13,43.64-8.21,6.55-18.34,9.91-29.46,9.91Zm-35.8-140.43c-10.69,0-20.41,3.21-28.26,9.48-11.65,9.3-17.83,24.25-17.41,42.08.42,17.94,7.46,36.63,19.83,52.64,12.36,16,28.55,27.38,45.59,32.04,16.93,4.63,32.66,2.07,44.3-7.23,11.64-9.3,17.83-24.24,17.41-42.08-.42-17.94-7.46-36.63-19.83-52.64-12.36-16-28.55-27.38-45.59-32.04-5.51-1.51-10.89-2.25-16.04-2.25Z"/>
    <path class="cls-2" d="m519.6,571.43c-2.07,0-4.18-.1-6.33-.31-18.02-1.76-36.35-10.79-51.61-25.42-15.26-14.62-25.64-33.09-29.25-52.02-3.63-19.03.02-36.25,10.27-48.5,10.27-12.27,25.91-18.06,44.05-16.28,18.02,1.76,36.35,10.79,51.61,25.42,15.25,14.62,25.64,33.09,29.25,52.02,3.63,19.03-.02,36.26-10.27,48.5-9.06,10.82-22.29,16.6-37.72,16.6Zm-39.18-140.87c-14.84,0-27.54,5.53-36.21,15.88-9.86,11.78-13.36,28.42-9.85,46.85,3.53,18.53,13.72,36.63,28.68,50.96,14.95,14.32,32.86,23.16,50.43,24.87,17.45,1.71,32.49-3.83,42.33-15.58,9.86-11.78,13.36-28.42,9.85-46.85-3.53-18.53-13.72-36.63-28.68-50.96-14.95-14.32-32.86-23.16-50.43-24.87-2.08-.2-4.12-.3-6.12-.3Z"/>
    <path class="cls-2" d="m520.03,571.48c-16.52,0-34.03-5.98-49.88-17.14-17.56-12.36-31-29.62-37.84-48.57-6.87-19.04-6.27-37.55,1.69-52.1,7.99-14.6,22.4-23.46,40.58-24.94h0c18.06-1.46,37.7,4.54,55.28,16.92,17.56,12.36,31,29.61,37.84,48.57,6.87,19.04,6.27,37.54-1.69,52.1-7.99,14.6-22.4,23.46-40.58,24.94-1.79.14-3.59.22-5.4.22Zm-45.29-140.72h0c-17.47,1.42-31.31,9.9-38.96,23.88-7.68,14.03-8.23,31.94-1.56,50.43,6.7,18.57,19.87,35.47,37.09,47.6,17.2,12.11,36.35,17.99,53.94,16.56,17.47-1.42,31.31-9.9,38.96-23.88,7.68-14.03,8.23-31.94,1.56-50.43-6.7-18.57-19.87-35.47-37.09-47.6-17.2-12.11-36.35-18-53.94-16.56Z"/>
    <path class="cls-2" d="m519.46,571.56c-12.8,0-26.34-3.32-39.46-9.8-19.44-9.61-35.68-25.03-45.7-43.44-10.06-18.47-12.68-37.74-7.38-54.26,5.33-16.59,17.99-28.4,35.64-33.26,17.55-4.83,37.95-2.19,57.43,7.44,19.44,9.61,35.68,25.03,45.7,43.44,10.06,18.47,12.68,37.74,7.38,54.26-5.33,16.59-17.99,28.41-35.64,33.26-5.73,1.58-11.77,2.36-17.97,2.36Zm-38.91-141.02c-6.02,0-11.87.76-17.42,2.28-16.95,4.66-29.1,15.99-34.21,31.88-5.13,15.97-2.56,34.66,7.22,52.62,9.82,18.03,25.73,33.14,44.79,42.56,19.02,9.4,38.89,11.99,55.95,7.3,16.95-4.66,29.1-15.99,34.21-31.89,5.13-15.97,2.57-34.66-7.22-52.62-9.82-18.03-25.73-33.14-44.79-42.56-12.83-6.34-26.05-9.58-38.53-9.58Z"/>
    <path class="cls-2" d="m517.8,571.83c-8.66,0-17.7-1.39-26.79-4.19-20.83-6.41-39.5-19.44-52.57-36.68-13.11-17.29-19.03-36.77-16.68-54.85,2.36-18.16,12.78-32.71,29.32-40.97h0c16.46-8.22,37.03-9.21,57.9-2.79,20.83,6.41,39.49,19.43,52.57,36.68,13.11,17.29,19.03,36.77,16.68,54.85-2.36,18.16-12.78,32.71-29.32,40.97-9.29,4.64-19.89,6.98-31.11,6.98Zm-35.6-141.52c-10.89,0-21.16,2.26-30.15,6.75h0c-15.89,7.93-25.88,21.9-28.15,39.33-2.28,17.51,3.49,36.43,16.26,53.28,12.8,16.89,31.09,29.65,51.49,35.93,20.35,6.26,40.35,5.32,56.32-2.66,15.88-7.93,25.88-21.9,28.15-39.33,2.28-17.51-3.49-36.43-16.26-53.28-12.8-16.89-31.09-29.65-51.49-35.93-8.89-2.74-17.71-4.1-26.16-4.1Z"/>
    <path class="cls-2" d="m514.96,572.54c-3.95,0-7.98-.26-12.08-.8-21.64-2.84-42.29-12.93-58.17-28.43-15.91-15.52-25.12-34.62-25.94-53.77-.82-19.23,6.9-36.21,21.75-47.79h0c14.8-11.54,34.89-16.33,56.59-13.48,21.64,2.84,42.29,12.93,58.17,28.43,15.91,15.52,25.12,34.62,25.94,53.77.82,19.24-6.9,36.21-21.75,47.79-12.01,9.36-27.51,14.28-44.51,14.28Zm-29.91-142.88c-16.52,0-31.55,4.76-43.17,13.82-14.27,11.13-21.7,27.46-20.91,45.96.8,18.59,9.77,37.16,25.27,52.29,15.53,15.16,35.75,25.04,56.92,27.82,21.1,2.77,40.62-1.86,54.95-13.03,14.27-11.13,21.7-27.46,20.91-45.96-.8-18.59-9.77-37.16-25.27-52.29-15.53-15.16-35.75-25.04-56.92-27.82-3.99-.52-7.93-.78-11.78-.78Z"/>
    <path class="cls-2" d="m510.97,573.91c-20.4,0-40.82-6.65-57.94-18.95-18.36-13.18-30.74-31.29-34.87-50.98-4.15-19.76.51-38.75,13.11-53.46h0c12.57-14.67,31.55-23.32,53.43-24.33,21.81-1.02,43.93,5.68,62.26,18.85,18.36,13.18,30.74,31.29,34.87,50.98,4.15,19.76-.51,38.75-13.11,53.46-12.57,14.67-31.55,23.32-53.43,24.33-1.44.07-2.88.1-4.33.1Zm-21.94-145.56c-1.41,0-2.82.03-4.23.1-21.25.99-39.65,9.35-51.82,23.55h0c-12.13,14.16-16.62,32.46-12.62,51.52,4.01,19.14,16.08,36.76,33.98,49.61,17.92,12.87,39.52,19.39,60.84,18.43,21.25-.99,39.65-9.35,51.82-23.55,12.13-14.16,16.62-32.46,12.62-51.52-4.01-19.14-16.08-36.76-33.98-49.61-16.74-12.02-36.69-18.52-56.61-18.52Z"/>
    <path class="cls-2" d="m507,576.1c-14.9,0-29.92-3.58-43.74-10.58-20.37-10.31-35.71-26.82-43.2-46.47-7.51-19.71-6.22-40.22,3.63-57.75,9.83-17.51,27.03-29.94,48.41-34.99,21.33-5.04,44.29-2.14,64.64,8.16,20.37,10.31,35.71,26.82,43.2,46.47,7.51,19.71,6.22,40.21-3.63,57.75-9.83,17.51-27.03,29.94-48.41,34.99-6.84,1.62-13.86,2.42-20.9,2.42Zm-14-149.89c-6.86,0-13.7.78-20.37,2.36-20.74,4.9-37.41,16.93-46.92,33.87h0c-9.5,16.92-10.74,36.73-3.48,55.79,7.28,19.11,22.22,35.17,42.08,45.22,19.87,10.06,42.27,12.9,63.06,7.98,20.74-4.9,37.41-16.94,46.92-33.87,9.5-16.92,10.74-36.73,3.48-55.79-7.28-19.11-22.22-35.17-42.08-45.22-13.5-6.83-28.16-10.33-42.7-10.33Z"/>
    <path class="cls-2" d="m503.7,579.08c-9.52,0-19.14-1.49-28.53-4.48-21.86-6.97-39.84-21.28-50.62-40.28-10.8-19.04-13.09-40.51-6.45-60.46,6.64-19.94,21.41-35.97,41.6-45.12,20.15-9.13,43.28-10.33,65.14-3.36,21.86,6.97,39.84,21.28,50.62,40.28,10.8,19.04,13.09,40.51,6.45,60.46-6.64,19.94-21.41,35.97-41.6,45.11-11.49,5.21-23.96,7.84-36.61,7.84Zm-7.39-155.79c-12.31,0-24.44,2.55-35.63,7.62-19.57,8.87-33.89,24.39-40.32,43.7-6.43,19.3-4.2,40.09,6.26,58.53,10.49,18.48,27.99,32.4,49.28,39.19,21.29,6.79,43.82,5.63,63.43-3.26,19.57-8.87,33.89-24.39,40.32-43.7,6.43-19.3,4.2-40.09-6.26-58.54-10.49-18.48-27.99-32.4-49.28-39.19-9.15-2.92-18.53-4.37-27.8-4.37Z"/>
    <path class="cls-2" d="m501.27,582.75c-4.23,0-8.5-.3-12.78-.91-22.76-3.23-42.96-14.78-56.88-32.51-13.93-17.75-19.92-39.57-16.84-61.44,3.07-21.87,14.84-41.17,33.12-54.34,18.27-13.16,40.86-18.63,63.62-15.4,22.75,3.23,42.95,14.78,56.88,32.51,13.93,17.75,19.91,39.57,16.84,61.44-3.08,21.87-14.84,41.17-33.12,54.34-14.84,10.69-32.53,16.3-50.84,16.3Zm-2.53-163.06c-17.8,0-35,5.46-49.41,15.84-17.74,12.78-29.15,31.5-32.13,52.7-2.98,21.21,2.82,42.37,16.34,59.59,13.53,17.24,33.17,28.46,55.3,31.6,22.13,3.14,44.09-2.17,61.85-14.96,17.74-12.78,29.15-31.5,32.13-52.7,2.98-21.21-2.82-42.37-16.34-59.59-13.53-17.24-33.17-28.46-55.3-31.6-4.16-.59-8.31-.88-12.43-.88Z"/>
    <path class="cls-2" d="m499.8,586.97c-21.86,0-42.58-8.23-58.63-23.37-16.8-15.84-26.47-37.36-27.24-60.57h0c-.77-23.21,7.46-45.35,23.17-62.34,15.71-16.99,37.03-26.79,60.02-27.6,22.99-.81,44.91,7.48,61.71,23.32,16.8,15.85,26.47,37.35,27.24,60.57.77,23.21-7.46,45.35-23.17,62.34-15.71,16.99-37.03,26.79-60.02,27.6-1.03.04-2.05.05-3.08.05Zm.39-171.43c-.99,0-1.98.02-2.98.05-22.32.79-43.01,10.3-58.27,26.8-15.26,16.5-23.25,38.01-22.5,60.56h0c.75,22.55,10.14,43.44,26.46,58.83,16.31,15.39,37.61,23.44,59.9,22.64,22.32-.78,43.01-10.3,58.27-26.8,15.26-16.5,23.25-38,22.51-60.56-.75-22.55-10.14-43.44-26.46-58.83-15.58-14.7-35.69-22.69-56.92-22.69Z"/>
    <path class="cls-2" d="m500,591.53c-16.54,0-32.74-5.08-46.94-14.9-19.29-13.35-32.55-33.87-37.33-57.78h0c-4.78-23.9-.53-48.33,11.98-68.79,12.53-20.49,31.82-34.55,54.34-39.59,22.53-5.05,45.57-.47,64.88,12.9,19.29,13.35,32.55,33.87,37.33,57.78,4.78,23.9.53,48.33-11.98,68.79-12.52,20.49-31.82,34.55-54.34,39.59-5.97,1.34-11.98,2-17.95,2Zm-81.75-73.19c4.65,23.25,17.54,43.2,36.28,56.17,18.72,12.96,41.04,17.39,62.86,12.51,21.83-4.89,40.55-18.54,52.71-38.42,12.17-19.91,16.31-43.69,11.66-66.95-4.65-23.25-17.54-43.2-36.28-56.17-18.72-12.96-41.04-17.4-62.86-12.51-21.83,4.89-40.55,18.54-52.71,38.42-12.17,19.91-16.31,43.69-11.66,66.95h0Z"/>
    <path class="cls-2" d="m501.92,596.14c-11.8,0-23.63-2.73-34.87-8.17-21.32-10.32-37.94-29.16-46.8-53.07h0c-8.85-23.88-8.9-49.96-.14-73.44,8.77-23.52,25.34-41.62,46.64-50.97,21.33-9.36,44.84-8.82,66.21,1.52,21.32,10.32,37.94,29.16,46.8,53.07,8.85,23.88,8.9,49.96.14,73.44-8.77,23.52-25.34,41.62-46.64,50.96-10.11,4.44-20.71,6.65-31.34,6.65Zm-79.21-62.15c8.62,23.26,24.78,41.59,45.48,51.61,20.66,9.99,43.39,10.52,64,1.48,20.64-9.06,36.71-26.63,45.23-49.47,8.54-22.89,8.49-48.32-.15-71.6-8.62-23.26-24.77-41.59-45.48-51.61-20.66-10-43.39-10.52-64-1.48-20.64,9.06-36.71,26.63-45.23,49.48-8.54,22.88-8.48,48.32.15,71.6h0Z"/>
    <path class="cls-2" d="m505.16,600.51c-7.4,0-14.91-1.1-22.37-3.33-22.8-6.8-42.45-23.3-55.32-46.46h0c-12.85-23.12-17.43-50.12-12.89-76.04,4.55-25.97,17.72-47.75,37.07-61.33,19.4-13.61,42.68-17.36,65.54-10.54,22.8,6.8,42.45,23.3,55.32,46.46,12.86,23.12,17.43,50.12,12.89,76.04-4.55,25.97-17.72,47.75-37.07,61.33-13.07,9.17-27.9,13.86-43.18,13.86Zm-10.31-198.31c-14.73,0-29.03,4.52-41.64,13.37-18.76,13.17-31.53,34.33-35.96,59.58-4.44,25.31.03,51.68,12.59,74.26h0c12.53,22.54,31.62,38.59,53.73,45.18,22.05,6.58,44.5,2.97,63.22-10.16,18.76-13.17,31.53-34.33,35.96-59.58,4.44-25.31-.03-51.68-12.59-74.26-12.53-22.54-31.61-38.58-53.73-45.18-7.2-2.15-14.44-3.21-21.58-3.21Z"/>
    <path class="cls-2" d="m509.26,604.43c-3.08,0-6.2-.19-9.34-.57-23.65-2.89-45.88-16.4-62.59-38.06-16.67-21.6-25.86-48.74-25.88-76.42-.02-27.73,9.15-52.7,25.84-70.3,16.75-17.67,39.05-25.81,62.78-22.92,23.65,2.89,45.88,16.4,62.59,38.07,16.67,21.6,25.86,48.74,25.88,76.42.02,27.73-9.15,52.7-25.84,70.3-14.54,15.33-33.25,23.49-53.44,23.49Zm-69.73-40.33c16.25,21.07,37.82,34.21,60.73,37,22.83,2.78,44.3-5.05,60.43-22.07,16.2-17.09,25.11-41.38,25.08-68.39-.02-27.07-9.01-53.61-25.3-74.73-16.25-21.07-37.82-34.21-60.73-37.01-22.83-2.77-44.3,5.06-60.43,22.07-16.2,17.09-25.11,41.37-25.08,68.39.02,27.07,9.01,53.61,25.3,74.73h0Z"/>
    <path class="cls-2" d="m513.72,607.75c-22.44,0-45.03-9.89-64.06-28.15h0c-20.16-19.35-33.92-45.79-38.75-74.46-4.84-28.72-.14-56.25,13.23-77.54,13.43-21.39,33.99-33.9,57.89-35.24,23.83-1.34,48.08,8.62,68.3,28.03,20.16,19.34,33.92,45.79,38.74,74.46,4.84,28.72.14,56.25-13.23,77.53-13.44,21.39-33.99,33.91-57.89,35.24-1.41.08-2.83.12-4.24.12Zm-62.09-30.2c19.65,18.86,43.14,28.52,66.17,27.25,22.95-1.28,42.71-13.33,55.64-33.92,13-20.69,17.55-47.52,12.84-75.55-4.73-28.07-18.19-53.95-37.91-72.88-19.65-18.86-43.15-28.52-66.17-27.25-22.95,1.29-42.71,13.33-55.64,33.92-13,20.69-17.56,47.52-12.84,75.55,4.73,28.07,18.19,53.95,37.91,72.88h0Z"/>
    <path class="cls-2" d="m518.61,610.4c-18.12,0-36.92-6.39-54.41-18.73h0c-23.21-16.37-41.35-41.26-51.08-70.09-9.74-28.86-9.89-58.24-.43-82.72,9.51-24.62,27.59-41.36,50.91-47.11,23.25-5.75,48.9.15,72.21,16.59,23.21,16.37,41.35,41.26,51.08,70.09,9.74,28.86,9.89,58.24.43,82.72-9.51,24.62-27.59,41.36-50.91,47.11-5.81,1.43-11.76,2.14-17.8,2.14Zm-52.73-21.11c22.61,15.94,47.4,21.67,69.83,16.14,22.36-5.52,39.72-21.62,48.88-45.33,9.22-23.85,9.05-52.52-.48-80.74-9.53-28.25-27.29-52.62-50-68.63-22.61-15.94-47.41-21.67-69.83-16.14-22.36,5.52-39.72,21.62-48.88,45.33-9.22,23.85-9.05,52.52.48,80.74,9.53,28.25,27.29,52.62,50,68.63h0Z"/>
    <path class="cls-2" d="m523.53,612.27c-13.89,0-28.47-3.6-42.91-10.75h0c-25.71-12.73-47.89-35.22-62.48-63.32-14.59-28.12-19.84-58.52-14.78-85.61,5.09-27.25,19.99-47.89,41.95-58.12,21.93-10.22,48.24-8.8,74.08,4,25.7,12.73,47.89,35.21,62.48,63.32,14.59,28.12,19.84,58.52,14.78,85.6-5.09,27.25-19.99,47.89-41.95,58.12-9.68,4.51-20.21,6.75-31.17,6.75Zm-41.58-13.43c25,12.38,50.39,13.79,71.48,3.96,21.06-9.81,35.36-29.68,40.27-55.95,4.94-26.43-.21-56.15-14.5-83.67-14.3-27.54-36.01-49.57-61.15-62.01-25-12.38-50.39-13.79-71.48-3.96-21.06,9.81-35.36,29.68-40.27,55.95-4.94,26.43.21,56.15,14.5,83.68,14.29,27.54,36.01,49.56,61.15,62.01h0Z"/>
    <path class="cls-2" d="m527.84,613.38c-9.42,0-19.27-1.54-29.33-4.64-27.54-8.5-53.3-27.76-72.55-54.23-19.24-26.47-29.69-57-29.41-85.98.28-29.15,11.36-53.25,31.21-67.86,19.85-14.62,46.03-17.96,73.73-9.41,27.54,8.5,53.3,27.76,72.55,54.23,19.24,26.47,29.69,57,29.41,85.98-.28,29.15-11.37,53.25-31.21,67.86-12.64,9.31-27.86,14.05-44.4,14.05Zm-55.66-223.68c-15.9,0-30.49,4.53-42.6,13.44-19.05,14.03-29.68,37.26-29.96,65.42-.27,28.33,9.96,58.21,28.82,84.15,18.86,25.94,44.06,44.79,70.97,53.1,26.74,8.25,51.96,5.08,71-8.95,19.05-14.03,29.68-37.26,29.96-65.42.27-28.33-9.96-58.21-28.82-84.15-18.86-25.93-44.06-44.79-70.97-53.1-9.75-3.01-19.29-4.5-28.4-4.5Z"/>
    <path class="cls-2" d="m530.87,613.86c-4.39,0-8.88-.3-13.47-.91h0c-28.61-3.78-57.34-19.04-80.9-42.97-23.54-23.91-39.12-53.64-43.88-83.72-4.78-30.23,1.95-57.22,18.93-75.97,17.02-18.79,42.26-27.05,71.05-23.24,28.61,3.78,57.34,19.04,80.9,42.97,23.54,23.91,39.12,53.64,43.88,83.72,4.78,30.23-1.95,57.21-18.93,75.97-14.31,15.8-34.42,24.15-57.57,24.15Zm-13.06-4.03c27.74,3.67,51.99-4.23,68.3-22.24,16.34-18.04,22.78-44.09,18.16-73.37-4.65-29.43-19.93-58.55-43.01-82-23.07-23.43-51.15-38.37-79.07-42.05-27.74-3.67-51.99,4.23-68.3,22.24-16.33,18.04-22.78,44.09-18.16,73.37,4.65,29.43,19.93,58.55,43.01,82,23.07,23.43,51.15,38.36,79.07,42.05h0Z"/>
    <path class="cls-2" d="m531.93,613.98c-27.46,0-56.52-10.51-82.37-29.88-27.33-20.49-47.84-48.45-57.74-78.75-9.95-30.44-8.01-59.6,5.45-82.13,13.5-22.6,36.93-35.77,65.98-37.1,28.87-1.3,59.83,9.26,87.19,29.77,27.33,20.48,47.84,48.45,57.74,78.75,9.95,30.43,8.01,59.6-5.45,82.13-13.5,22.6-36.93,35.77-65.98,37.09-1.6.07-3.21.11-4.82.11Zm4.67-3.34l.07,1.62-.07-1.62c27.93-1.27,50.42-13.89,63.35-35.52,12.97-21.71,14.8-49.93,5.15-79.46-9.7-29.67-29.8-57.08-56.61-77.16-26.77-20.06-56.99-30.4-85.11-29.13-27.93,1.27-50.42,13.89-63.35,35.52-12.97,21.71-14.8,49.93-5.15,79.46,9.7,29.67,29.8,57.07,56.61,77.16,26.77,20.06,57.01,30.4,85.11,29.13Z"/>
    <path class="cls-2" d="m531.34,614.07c-21.62,0-44.51-6.03-66.45-17.72-30.48-16.24-55.53-41.48-70.54-71.08-15.07-29.71-18.22-60.26-8.89-86.04,9.37-25.89,30.16-43.83,58.56-50.51,28.22-6.64,60.58-1.34,91.12,14.93,30.48,16.24,55.53,41.48,70.54,71.08,15.07,29.7,18.22,60.26,8.89,86.04-9.37,25.89-30.16,43.83-58.56,50.51-7.94,1.87-16.2,2.79-24.66,2.79Zm-62.67-224.82c-8.21,0-16.22.89-23.91,2.71-27.26,6.42-47.22,23.61-56.2,48.41-9.01,24.91-5.91,54.53,8.73,83.41,14.7,28.99,39.26,53.73,69.14,69.65,29.83,15.89,61.36,21.09,88.8,14.63,27.26-6.42,47.22-23.61,56.2-48.41,9.01-24.91,5.91-54.53-8.73-83.41-14.7-28.99-39.26-53.73-69.14-69.65-21.47-11.44-43.82-17.34-64.89-17.34Z"/>
    <path class="cls-2" d="m529.05,614.42c-15.17,0-31.04-2.72-46.94-8.18-32.85-11.27-61.91-32.86-81.83-60.8-19.98-28.02-28.39-59.09-23.69-87.48,4.73-28.53,22.09-50.91,48.89-63.03,26.66-12.06,59.48-12.48,92.41-1.18,32.85,11.27,61.91,32.86,81.83,60.79,19.98,28.02,28.39,59.09,23.69,87.49-4.73,28.53-22.09,50.91-48.89,63.03-13.79,6.23-29.22,9.36-45.47,9.36Zm-58.1-225.44c-15.76,0-30.72,3.02-44.06,9.05-25.73,11.64-42.4,33.12-46.94,60.49-4.56,27.5,3.65,57.67,23.1,84.95,19.51,27.36,47.98,48.51,80.17,59.55,32.1,11.01,64.03,10.63,89.9-1.06,25.73-11.64,42.4-33.12,46.94-60.49,4.56-27.5-3.65-57.67-23.1-84.95-19.51-27.36-47.98-48.51-80.17-59.55-15.54-5.33-31.05-7.99-45.84-7.99Z"/>
    <path class="cls-2" d="m524.88,615.38c-7.85,0-15.9-.67-24.08-2.02-34.32-5.68-66.71-22.76-91.19-48.08-24.53-25.38-38.2-56.03-38.5-86.3-.3-30.4,12.91-56.76,37.19-74.21,24.19-17.39,56.46-23.83,90.88-18.13,34.33,5.68,66.71,22.75,91.19,48.08,24.53,25.38,38.2,56.03,38.5,86.3.3,30.4-12.91,56.76-37.19,74.22-18.44,13.26-41.59,20.15-66.8,20.15Zm-49.77-227.27c-24.48,0-46.92,6.67-64.76,19.49-23.33,16.77-36.02,42.11-35.74,71.34.29,29.37,13.61,59.17,37.52,83.91,23.96,24.79,55.66,41.51,89.25,47.06,33.5,5.54,64.85-.68,88.27-17.52h0c23.33-16.77,36.02-42.11,35.74-71.35-.29-29.37-13.61-59.17-37.52-83.91-23.96-24.79-55.65-41.5-89.25-47.06-7.98-1.32-15.85-1.97-23.51-1.97Z"/>
    <path class="cls-2" d="m518.82,617.33c-34.27,0-68.49-11.76-96.55-33.2-28.56-21.82-47.34-51.08-52.89-82.38-5.57-31.43,2.86-61.13,23.72-83.64,20.81-22.46,51.5-35.04,86.42-35.42,34.77-.39,69.69,11.4,98.21,33.19,28.56,21.82,47.34,51.08,52.89,82.38,5.57,31.43-2.86,61.13-23.72,83.64-20.81,22.45-51.5,35.04-86.41,35.42-.55,0-1.11,0-1.66,0Zm-37.64-231.08c-.54,0-1.08,0-1.63,0-33.92.38-63.69,12.55-83.83,34.28-20.08,21.67-28.19,50.29-22.82,80.58,5.39,30.42,23.69,58.89,51.53,80.16,27.88,21.31,62.01,32.83,96,32.46,33.92-.38,63.69-12.55,83.83-34.28,20.08-21.67,28.19-50.29,22.82-80.58-5.39-30.42-23.69-58.88-51.53-80.16-27.44-20.97-60.9-32.47-94.37-32.47Z"/>
    <path class="cls-2" d="m512.34,620.57c-25.46,0-51.1-6.54-74.33-19.21-31.92-17.41-55.49-44.3-66.39-75.72-10.92-31.52-7.79-63.82,8.83-90.94,16.6-27.09,44.65-45.74,78.99-52.53,34.25-6.77,70.68-.92,102.57,16.47,31.92,17.4,55.49,44.29,66.38,75.72,10.93,31.52,7.79,63.81-8.83,90.94-16.6,27.08-44.65,45.74-78.99,52.53-9.29,1.84-18.75,2.75-28.23,2.75Zm-24.66-237.47c-9.25,0-18.46.89-27.53,2.68-33.32,6.59-60.51,24.64-76.57,50.84-16.03,26.16-19.05,57.35-8.49,87.81,10.59,30.56,33.56,56.73,64.67,73.7,31.14,16.98,66.69,22.69,100.09,16.09,33.32-6.59,60.51-24.64,76.57-50.84,16.03-26.16,19.05-57.35,8.49-87.81-10.59-30.56-33.56-56.73-64.67-73.7-22.69-12.37-47.73-18.76-72.57-18.76Z"/>
    <path class="cls-2" d="m506.82,625.09c-16.84,0-33.86-2.91-50.32-8.74-34.47-12.21-62.36-35.78-78.54-66.36-16.22-30.65-18.73-64.66-7.09-95.77,11.64-31.1,36.03-55.57,68.67-68.88,32.58-13.29,69.5-13.89,103.96-1.68,34.47,12.21,62.36,35.78,78.54,66.36,16.21,30.65,18.73,64.66,7.09,95.78-11.64,31.1-36.03,55.57-68.67,68.88-17.02,6.94-35.22,10.42-53.64,10.42Zm-13.65-246.41c-17.93,0-35.65,3.39-52.21,10.14-31.66,12.91-55.3,36.61-66.56,66.71-11.26,30.09-8.81,63.01,6.89,92.69,15.74,29.74,42.89,52.68,76.47,64.57,33.58,11.9,69.55,11.32,101.28-1.62,31.66-12.91,55.3-36.61,66.56-66.71,11.26-30.09,8.81-63.01-6.89-92.69-15.74-29.74-42.9-52.67-76.47-64.57-16.05-5.69-32.65-8.53-49.07-8.53Z"/>
    <path class="cls-2" d="m502.66,630.74c-8.39,0-16.86-.74-25.32-2.23-36.09-6.36-67.67-25.7-88.92-54.45-21.27-28.78-29.65-63.55-23.6-97.89,6.06-34.35,25.82-64.15,55.66-83.92,29.8-19.75,66.09-27.13,102.18-20.76,36.09,6.36,67.67,25.7,88.92,54.45,21.27,28.78,29.65,63.55,23.6,97.89-6.06,34.35-25.82,64.15-55.66,83.92-22.82,15.12-49.44,22.99-76.86,22.99Zm-5.31-257.61c-26.67,0-52.55,7.64-74.73,22.34-28.94,19.18-48.11,48.07-53.98,81.36-5.87,33.29,2.26,67,22.9,94.92,20.66,27.95,51.37,46.75,86.48,52.94,35.11,6.19,70.4-.97,99.37-20.17,28.94-19.18,48.11-48.07,53.98-81.36,5.87-33.29-2.26-67-22.9-94.92-20.66-27.95-51.37-46.75-86.48-52.94-8.23-1.45-16.48-2.17-24.64-2.17Z"/>
    <path class="cls-2" d="m500,637.31c-36.68,0-71.16-14.28-97.09-40.22-25.93-25.93-40.22-60.41-40.22-97.09s14.28-71.16,40.22-97.09c25.93-25.93,60.41-40.22,97.09-40.22s71.16,14.28,97.09,40.22c25.93,25.93,40.22,60.42,40.22,97.09s-14.28,71.16-40.22,97.09c-25.94,25.94-60.42,40.22-97.09,40.22Zm0-270.65c-35.62,0-69.1,13.87-94.28,39.05-25.18,25.18-39.05,58.67-39.05,94.29s13.87,69.1,39.05,94.28c25.18,25.18,58.67,39.05,94.28,39.05s69.1-13.87,94.29-39.05c25.18-25.18,39.05-58.67,39.05-94.28s-13.87-69.1-39.05-94.29c-25.18-25.18-58.67-39.05-94.29-39.05Z"/>
  </g>
</svg>