<?xml version="1.0" encoding="UTF-8"?>
<svg id="Layer_2" data-name="Layer 2" xmlns="http://www.w3.org/2000/svg" viewBox="0 0 356.03 99.55">
  <defs>
    <style>
      .cls-1 {
        fill: #353535;
        stroke-width: 0px;
      }
    </style>
  </defs>
  <g id="Layer_1-2" data-name="Layer 1">
    <g>
      <g>
        <path class="cls-1" d="M37.95,70.9C20.46,70.9,0,59.27,0,35.45S20.46,0,37.95,0s38.04,11.62,38.04,35.45-20.46,35.45-38.04,35.45ZM37.95,11.05c-11.91,0-25.94,8.07-25.94,24.4s14.03,24.4,25.94,24.4,26.03-8.07,26.03-24.4-14.03-24.4-26.03-24.4Z"/>
        <path class="cls-1" d="M97.05,21.42h13.45l9.51,10.47h2.31c7.78,0,11.72-4.9,11.72-9.89s-3.94-9.99-11.72-9.99h-29.4l-8.45-10.18h39.96c14.6,0,21.81,10.09,21.81,20.08,0,9.03-5.76,18.06-17.39,19.89l24.59,27.28h-14.79l-23.54-27h-18.45v27h-11.72V31.89h21.33l-9.22-10.47Z"/>
        <path class="cls-1" d="M159.86,1.82h11.72v67.25h-11.72V1.82Z"/>
        <path class="cls-1" d="M249.99,69.07h-6.05l-2.59-6.53c-6.05,5.47-14.12,8.36-22.58,8.36-17.39,0-37.66-11.82-37.66-35.45S201.48,0,218.77,0c12.68,0,24.4,5.19,31.61,14.51l-9.22,7.49c-5.09-6.53-13.93-10.57-22-10.57-17,0-25.55,12.01-25.55,24.02s8.55,24.02,25.55,24.02c12.49,0,19.41-8.26,19.41-17.87v-1.15h-17.2v-8.07h28.63v36.7Z"/>
        <path class="cls-1" d="M261.2,1.82h11.72v67.25h-11.72V1.82Z"/>
        <path class="cls-1" d="M344.31,1.82h11.72v67.25h-11.72L283.02,1.82h14.99l46.31,51.3V1.82ZM285.42,31.22h11.72v37.85h-11.72V31.22Z"/>
      </g>
      <g>
        <path class="cls-1" d="M25.55,91.6v-.04c0-4.39,3.29-7.99,7.97-7.99,2.85,0,4.57.99,6.05,2.41l-1.74,2.01c-1.24-1.15-2.56-1.92-4.33-1.92-2.96,0-5.1,2.43-5.1,5.45v.04c0,3.02,2.14,5.5,5.1,5.5,1.9,0,3.11-.77,4.44-2.01l1.74,1.77c-1.61,1.68-3.38,2.74-6.27,2.74-4.5,0-7.86-3.51-7.86-7.95Z"/>
        <path class="cls-1" d="M45.71,91.6v-.04c0-4.35,3.36-7.99,8.1-7.99s8.06,3.6,8.06,7.95v.04c0,4.35-3.36,7.99-8.1,7.99s-8.06-3.6-8.06-7.95ZM59.03,91.6v-.04c0-3-2.19-5.5-5.25-5.5s-5.21,2.45-5.21,5.45v.04c0,3,2.19,5.5,5.26,5.5s5.21-2.45,5.21-5.45Z"/>
        <path class="cls-1" d="M69.64,83.83h2.52l8.28,10.69v-10.69h2.67v15.45h-2.27l-8.52-11v11h-2.67v-15.45Z"/>
        <path class="cls-1" d="M90.49,97.03l1.63-1.94c1.48,1.28,2.96,2.01,4.88,2.01,1.68,0,2.74-.77,2.74-1.94v-.04c0-1.1-.62-1.7-3.49-2.36-3.29-.8-5.14-1.77-5.14-4.61v-.04c0-2.65,2.21-4.48,5.28-4.48,2.25,0,4.04.68,5.61,1.94l-1.46,2.05c-1.39-1.04-2.78-1.59-4.2-1.59-1.59,0-2.52.82-2.52,1.83v.04c0,1.19.71,1.72,3.67,2.43,3.27.79,4.97,1.96,4.97,4.53v.04c0,2.89-2.27,4.62-5.52,4.62-2.36,0-4.59-.82-6.45-2.47Z"/>
        <path class="cls-1" d="M109.8,92.73v-8.9h2.72v8.79c0,2.87,1.48,4.42,3.91,4.42s3.89-1.46,3.89-4.3v-8.9h2.72v8.76c0,4.61-2.61,6.93-6.65,6.93s-6.58-2.32-6.58-6.8Z"/>
        <path class="cls-1" d="M131.39,83.83h2.72v12.98h8.12v2.47h-10.84v-15.45Z"/>
        <path class="cls-1" d="M151.12,86.35h-4.9v-2.52h12.54v2.52h-4.9v12.94h-2.74v-12.94Z"/>
        <path class="cls-1" d="M165.89,83.83h2.72v15.45h-2.72v-15.45Z"/>
        <path class="cls-1" d="M177.19,83.83h2.52l8.28,10.69v-10.69h2.67v15.45h-2.27l-8.52-11v11h-2.67v-15.45Z"/>
        <path class="cls-1" d="M198.41,91.6v-.04c0-4.33,3.31-7.99,7.97-7.99,2.69,0,4.35.75,5.94,2.1l-1.72,2.05c-1.19-1.02-2.36-1.66-4.33-1.66-2.85,0-5.01,2.49-5.01,5.45v.04c0,3.18,2.1,5.52,5.26,5.52,1.46,0,2.78-.46,3.73-1.17v-2.89h-3.95v-2.36h6.58v6.49c-1.52,1.3-3.71,2.41-6.45,2.41-4.84,0-8.01-3.44-8.01-7.95Z"/>
        <path class="cls-1" d="M231.17,91.6v-.04c0-4.33,3.31-7.99,7.97-7.99,2.69,0,4.35.75,5.94,2.1l-1.72,2.05c-1.19-1.02-2.36-1.66-4.33-1.66-2.85,0-5.01,2.49-5.01,5.45v.04c0,3.18,2.1,5.52,5.26,5.52,1.46,0,2.78-.46,3.73-1.17v-2.89h-3.95v-2.36h6.58v6.49c-1.52,1.3-3.71,2.41-6.45,2.41-4.84,0-8.01-3.44-8.01-7.95Z"/>
        <path class="cls-1" d="M253.78,83.83h6.89c1.94,0,3.47.57,4.46,1.55.82.84,1.28,1.99,1.28,3.33v.04c0,2.54-1.52,4.06-3.69,4.68l4.17,5.85h-3.2l-3.8-5.39h-3.4v5.39h-2.72v-15.45ZM260.47,91.49c1.94,0,3.18-1.02,3.18-2.58v-.04c0-1.66-1.19-2.56-3.2-2.56h-3.95v5.19h3.97Z"/>
        <path class="cls-1" d="M273.25,91.6v-.04c0-4.35,3.36-7.99,8.1-7.99s8.06,3.6,8.06,7.95v.04c0,4.35-3.36,7.99-8.1,7.99s-8.06-3.6-8.06-7.95ZM286.56,91.6v-.04c0-3-2.19-5.5-5.25-5.5s-5.21,2.45-5.21,5.45v.04c0,3,2.19,5.5,5.26,5.5s5.21-2.45,5.21-5.45Z"/>
        <path class="cls-1" d="M296.92,92.73v-8.9h2.72v8.79c0,2.87,1.48,4.42,3.91,4.42s3.89-1.46,3.89-4.3v-8.9h2.72v8.76c0,4.61-2.61,6.93-6.65,6.93s-6.58-2.32-6.58-6.8Z"/>
        <path class="cls-1" d="M318.51,83.83h6.09c3.6,0,5.87,2.05,5.87,5.17v.04c0,3.47-2.78,5.28-6.18,5.28h-3.07v4.97h-2.72v-15.45ZM324.38,91.87c2.05,0,3.33-1.15,3.33-2.76v-.04c0-1.81-1.3-2.76-3.33-2.76h-3.16v5.56h3.16Z"/>
      </g>
    </g>
  </g>
</svg>