<?xml version="1.0" encoding="UTF-8"?>
<svg id="Layer_1" data-name="Layer 1" xmlns="http://www.w3.org/2000/svg" viewBox="0 0 1000 1000">
  <defs>
    <style>
      .cls-1 {
        fill: #888;
      }

      .cls-1, .cls-2 {
        stroke-width: 0px;
      }

      .cls-2 {
        fill: #353535;
      }
    </style>
  </defs>
  <g>
    <path class="cls-2" d="M125.4,828.05c-46.68,0-101.31-31.03-101.31-94.64s54.63-94.64,101.31-94.64,101.57,31.03,101.57,94.64-54.63,94.64-101.57,94.64ZM125.4,668.26c-31.81,0-69.25,21.55-69.25,65.15s37.45,65.15,69.25,65.15,69.51-21.54,69.51-65.15-37.45-65.15-69.51-65.15Z"/>
    <path class="cls-2" d="M283.2,695.96h35.91l25.39,27.96h6.16c20.78,0,31.29-13.08,31.29-26.42s-10.52-26.68-31.29-26.68h-78.49l-22.57-27.19h106.7c38.99,0,58.22,26.93,58.22,53.61,0,24.11-15.39,48.22-46.42,53.09l65.66,72.84h-39.5l-62.84-72.08h-49.25v72.08h-31.29v-99.26h56.94l-24.62-27.96Z"/>
    <path class="cls-2" d="M450.89,643.63h31.29v179.55h-31.29v-179.55Z"/>
    <path class="cls-2" d="M691.53,823.18h-16.16l-6.93-17.44c-16.16,14.62-37.7,22.31-60.27,22.31-46.43,0-100.54-31.55-100.54-94.64s54.38-94.64,100.54-94.64c33.86,0,65.15,13.85,84.39,38.73l-24.62,20c-13.59-17.44-37.19-28.21-58.74-28.21-45.4,0-68.23,32.06-68.23,64.12s22.83,64.12,68.23,64.12c33.34,0,51.81-22.06,51.81-47.71v-3.08h-45.91v-21.54h76.43v97.98Z"/>
    <path class="cls-2" d="M721.45,643.63h31.29v179.55h-31.29v-179.55Z"/>
    <path class="cls-2" d="M943.34,643.63h31.29v179.55h-31.29l-163.64-179.55h40.01l123.63,136.97v-136.97ZM786.11,722.12h31.29v101.05h-31.29v-101.05Z"/>
  </g>
  <g>
    <path class="cls-2" d="M92.31,883.33v-.12c0-11.73,8.78-21.34,21.28-21.34,7.6,0,12.2,2.65,16.15,6.42l-4.66,5.36c-3.3-3.07-6.84-5.13-11.55-5.13-7.9,0-13.62,6.48-13.62,14.56v.12c0,8.07,5.72,14.68,13.62,14.68,5.07,0,8.31-2.07,11.85-5.37l4.66,4.72c-4.3,4.48-9.02,7.31-16.74,7.31-12.03,0-20.98-9.37-20.98-21.22Z"/>
    <path class="cls-2" d="M146.13,883.33v-.12c0-11.61,8.96-21.34,21.63-21.34s21.52,9.61,21.52,21.22v.12c0,11.61-8.96,21.34-21.63,21.34s-21.52-9.61-21.52-21.22ZM181.67,883.33v-.12c0-8.02-5.84-14.68-14.03-14.68s-13.91,6.54-13.91,14.56v.12c0,8.02,5.84,14.68,14.03,14.68s13.91-6.54,13.91-14.56Z"/>
    <path class="cls-2" d="M210.01,862.58h6.72l22.11,28.53v-28.53h7.13v41.26h-6.07l-22.75-29.36v29.36h-7.13v-41.26Z"/>
    <path class="cls-2" d="M265.69,897.83l4.36-5.19c3.95,3.42,7.9,5.36,13.03,5.36,4.48,0,7.31-2.06,7.31-5.19v-.12c0-2.95-1.65-4.54-9.31-6.31-8.78-2.12-13.73-4.72-13.73-12.32v-.12c0-7.07,5.89-11.97,14.09-11.97,6.01,0,10.79,1.83,14.97,5.19l-3.89,5.48c-3.71-2.77-7.43-4.24-11.2-4.24-4.24,0-6.72,2.18-6.72,4.89v.12c0,3.18,1.89,4.6,9.79,6.48,8.72,2.12,13.26,5.24,13.26,12.08v.12c0,7.72-6.07,12.32-14.74,12.32-6.31,0-12.26-2.18-17.21-6.61Z"/>
    <path class="cls-2" d="M317.24,886.33v-23.75h7.25v23.46c0,7.66,3.95,11.79,10.43,11.79s10.37-3.89,10.37-11.49v-23.75h7.25v23.4c0,12.32-6.96,18.51-17.74,18.51s-17.57-6.19-17.57-18.16Z"/>
    <path class="cls-2" d="M374.89,862.58h7.25v34.66h21.69v6.6h-28.94v-41.26Z"/>
    <path class="cls-2" d="M427.56,869.3h-13.09v-6.72h33.48v6.72h-13.09v34.54h-7.31v-34.54Z"/>
    <path class="cls-2" d="M466.99,862.58h7.25v41.26h-7.25v-41.26Z"/>
    <path class="cls-2" d="M497.15,862.58h6.72l22.11,28.53v-28.53h7.13v41.26h-6.07l-22.75-29.36v29.36h-7.13v-41.26Z"/>
    <path class="cls-2" d="M553.81,883.33v-.12c0-11.55,8.84-21.34,21.28-21.34,7.19,0,11.61,2,15.86,5.6l-4.6,5.48c-3.18-2.71-6.31-4.42-11.55-4.42-7.6,0-13.38,6.66-13.38,14.56v.12c0,8.49,5.6,14.74,14.03,14.74,3.89,0,7.43-1.24,9.96-3.12v-7.72h-10.55v-6.31h17.57v17.33c-4.07,3.48-9.9,6.43-17.21,6.43-12.91,0-21.4-9.2-21.4-21.22Z"/>
    <path class="cls-2" d="M641.28,883.33v-.12c0-11.55,8.84-21.34,21.28-21.34,7.19,0,11.61,2,15.86,5.6l-4.6,5.48c-3.18-2.71-6.31-4.42-11.55-4.42-7.6,0-13.38,6.66-13.38,14.56v.12c0,8.49,5.6,14.74,14.03,14.74,3.89,0,7.43-1.24,9.96-3.12v-7.72h-10.55v-6.31h17.57v17.33c-4.07,3.48-9.9,6.43-17.21,6.43-12.91,0-21.4-9.2-21.4-21.22Z"/>
    <path class="cls-2" d="M701.63,862.58h18.39c5.19,0,9.25,1.53,11.91,4.13,2.18,2.24,3.42,5.3,3.42,8.9v.12c0,6.78-4.07,10.85-9.84,12.5l11.14,15.62h-8.55l-10.14-14.38h-9.08v14.38h-7.25v-41.26ZM719.49,883.03c5.19,0,8.49-2.71,8.49-6.89v-.12c0-4.42-3.18-6.84-8.55-6.84h-10.55v13.85h10.61Z"/>
    <path class="cls-2" d="M753.63,883.33v-.12c0-11.61,8.96-21.34,21.63-21.34s21.52,9.61,21.52,21.22v.12c0,11.61-8.96,21.34-21.63,21.34s-21.52-9.61-21.52-21.22ZM789.17,883.33v-.12c0-8.02-5.84-14.68-14.03-14.68s-13.91,6.54-13.91,14.56v.12c0,8.02,5.84,14.68,14.03,14.68s13.91-6.54,13.91-14.56Z"/>
    <path class="cls-2" d="M816.81,886.33v-23.75h7.25v23.46c0,7.66,3.95,11.79,10.43,11.79s10.37-3.89,10.37-11.49v-23.75h7.25v23.4c0,12.32-6.96,18.51-17.74,18.51s-17.57-6.19-17.57-18.16Z"/>
    <path class="cls-2" d="M874.46,862.58h16.27c9.61,0,15.68,5.48,15.68,13.79v.12c0,9.25-7.43,14.09-16.51,14.09h-8.19v13.26h-7.25v-41.26ZM890.14,884.04c5.48,0,8.9-3.07,8.9-7.37v-.12c0-4.83-3.48-7.37-8.9-7.37h-8.43v14.86h8.43Z"/>
  </g>
  <g>
    <path class="cls-1" d="M502.75,416.17c-9.12,0-18.34-1.28-27.41-3.85-23.76-6.74-43.6-21.6-55.88-41.82-12.3-20.26-15.53-43.48-9.11-65.39,6.42-21.91,21.73-39.86,43.1-50.55,21.33-10.68,46.17-12.85,69.92-6.11,23.76,6.74,43.6,21.6,55.88,41.82,12.3,20.26,15.53,43.48,9.11,65.39-6.42,21.9-21.73,39.86-43.1,50.56-13.19,6.61-27.73,9.96-42.51,9.96ZM495.97,247.17c-14.39,0-28.53,3.26-41.37,9.69-20.72,10.37-35.56,27.77-41.78,48.98-6.22,21.21-3.08,43.7,8.84,63.34,11.94,19.67,31.25,34.12,54.38,40.68,23.14,6.57,47.31,4.46,68.07-5.93,20.72-10.38,35.56-27.77,41.78-48.98h0c6.22-21.21,3.08-43.7-8.84-63.33-11.94-19.67-31.25-34.12-54.38-40.68-8.83-2.51-17.81-3.75-26.7-3.75Z"/>
    <path class="cls-1" d="M500.33,420.24c-3.45,0-6.92-.19-10.4-.56-24.59-2.65-46.72-14.42-62.33-33.16-15.62-18.74-22.83-42.2-20.31-66.06s14.47-45.26,33.65-60.25c19.17-14.98,43.26-21.77,67.85-19.13,24.58,2.65,46.72,14.42,62.33,33.15,15.62,18.74,22.83,42.21,20.31,66.07-2.52,23.86-14.47,45.25-33.65,60.25-16.45,12.86-36.54,19.69-57.45,19.69ZM498.39,243.16c-20.32,0-39.84,6.63-55.83,19.13-18.61,14.55-30.21,35.31-32.66,58.45-2.44,23.14,4.56,45.91,19.71,64.1,15.17,18.2,36.68,29.65,60.58,32.22,23.9,2.59,47.32-4.03,65.95-18.58,18.61-14.55,30.21-35.31,32.65-58.45h0c2.44-23.14-4.56-45.91-19.71-64.1-15.17-18.2-36.68-29.64-60.58-32.22-3.39-.37-6.77-.55-10.12-.55Z"/>
    <path class="cls-1" d="M499.02,424.88c-22.33,0-43.65-8.12-60.63-23.22-18.63-16.57-29.8-39.55-31.46-64.73-1.66-25.17,6.39-49.52,22.67-68.55,16.28-19.05,38.85-30.5,63.54-32.24,24.7-1.78,48.56,6.41,67.19,22.99,18.63,16.57,29.8,39.55,31.46,64.73h0c1.66,25.17-6.39,49.52-22.67,68.55-16.28,19.04-38.85,30.5-63.54,32.24-2.19.16-4.38.23-6.56.23ZM499.69,238.6c-2.11,0-4.23.07-6.36.22-23.96,1.7-45.87,12.81-61.68,31.3-15.81,18.5-23.64,42.16-22.02,66.62,1.61,24.46,12.47,46.79,30.56,62.89,18.09,16.08,41.23,23.98,65.2,22.31,23.96-1.7,45.87-12.82,61.68-31.3,15.81-18.5,23.63-42.16,22.02-66.62h0c-1.61-24.46-12.47-46.79-30.56-62.89-16.48-14.66-37.17-22.54-58.84-22.54Z"/>
    <path class="cls-1" d="M499.63,429.82c-16.75,0-33.25-4.91-47.98-14.46-21.22-13.77-36.21-35.55-42.21-61.33-6-25.77-2.3-52.45,10.41-75.14,12.73-22.72,32.97-38.71,57-45.04,24.04-6.33,48.99-2.23,70.23,11.56,21.22,13.77,36.21,35.55,42.22,61.33h0c6,25.77,2.3,52.45-10.41,75.14-12.73,22.72-32.97,38.72-57,45.04-7.38,1.94-14.84,2.91-22.25,2.91ZM499.07,233.72c-7.17,0-14.39.93-21.53,2.81-23.29,6.14-42.93,21.66-55.28,43.72-12.37,22.08-15.97,48.06-10.13,73.15,5.84,25.08,20.41,46.25,41.02,59.63,20.59,13.36,44.74,17.34,68.02,11.2,23.29-6.14,42.93-21.66,55.28-43.72,12.37-22.08,15.97-48.06,10.13-73.15-5.84-25.08-20.41-46.25-41.02-59.63-14.27-9.26-30.26-14.01-46.49-14.01Z"/>
    <path class="cls-1" d="M502.01,434.75c-11.75,0-23.57-2.53-34.92-7.6-23.3-10.4-41.84-30.23-52.23-55.85-10.37-25.59-11.37-53.9-2.8-79.72,8.59-25.87,25.74-46.14,48.31-57.1,22.6-10.97,47.91-11.28,71.25-.85,23.29,10.39,41.84,30.23,52.23,55.85h0c10.37,25.59,11.37,53.9,2.8,79.72-8.59,25.87-25.75,46.15-48.31,57.1-11.61,5.63-23.93,8.46-36.33,8.46ZM496.7,228.87c-11.98,0-23.88,2.72-35.08,8.17-21.87,10.62-38.51,30.31-46.85,55.44-8.36,25.18-7.39,52.79,2.73,77.75,10.11,24.93,28.13,44.22,50.75,54.32,22.57,10.07,47.02,9.78,68.85-.82,21.87-10.62,38.51-30.3,46.85-55.44,8.36-25.18,7.39-52.79-2.73-77.76-10.11-24.94-28.13-44.23-50.75-54.32-10.98-4.9-22.41-7.35-33.76-7.35Z"/>
    <path class="cls-1" d="M505.72,439.37c-7.05,0-14.21-.93-21.36-2.81-24.76-6.52-46.48-23.7-61.15-48.36-14.65-24.61-20.54-53.76-16.58-82.07,3.96-28.37,17.33-52.51,37.65-67.99,20.38-15.52,45.27-20.46,70.1-13.92,24.76,6.52,46.48,23.7,61.15,48.36,14.65,24.61,20.54,53.76,16.59,82.07-3.96,28.37-17.33,52.51-37.65,67.99-14.51,11.05-31.3,16.74-48.74,16.74ZM493.01,224.32c-16.81,0-33,5.48-46.98,16.14-19.7,15.01-32.67,38.47-36.53,66.07-3.86,27.65,1.89,56.12,16.2,80.17,14.28,24,35.38,40.7,59.39,47.03,23.94,6.31,47.94,1.54,67.58-13.42,19.7-15.01,32.67-38.47,36.52-66.07,3.86-27.66-1.89-56.13-16.2-80.17-14.28-24-35.37-40.7-59.39-47.02-6.9-1.82-13.8-2.72-20.6-2.72Z"/>
    <path class="cls-1" d="M510.24,443.46c-2.39,0-4.8-.11-7.23-.32-25.54-2.24-49.93-16.08-68.67-38.97-18.69-22.83-29.55-51.95-30.57-81.99-1.02-30.11,7.95-57.56,25.26-77.3,17.38-19.83,41.05-29.51,66.68-27.26,25.54,2.24,49.92,16.07,68.67,38.96h0c18.69,22.83,29.55,51.95,30.57,81.99,1.02,30.1-7.95,57.56-25.25,77.3-15.73,17.94-36.63,27.58-59.45,27.58ZM488.49,220.3c-21.96,0-42.06,9.28-57.21,26.56-16.81,19.17-25.51,45.88-24.51,75.22,1,29.39,11.62,57.88,29.89,80.2,18.23,22.26,41.88,35.71,66.61,37.88,24.64,2.16,47.43-7.16,64.16-26.25,16.81-19.17,25.51-45.89,24.51-75.22-1-29.39-11.62-57.88-29.89-80.2-18.23-22.26-41.88-35.71-66.61-37.88-2.34-.2-4.66-.31-6.96-.31Z"/>
    <path class="cls-1" d="M515.11,446.91c-23.21,0-46.74-9.85-67.02-28.2-22.37-20.24-38.11-48.43-44.33-79.38-6.23-30.99-2.17-61.06,11.44-84.67,13.68-23.74,35.33-38.1,60.97-40.46,25.56-2.35,52.01,7.55,74.45,27.86h0c22.37,20.24,38.11,48.43,44.33,79.38,6.23,30.99,2.17,61.06-11.44,84.68-13.68,23.73-35.33,38.1-60.97,40.46-2.47.23-4.95.34-7.43.34ZM483.6,216.93c-2.39,0-4.77.11-7.15.33-24.62,2.26-45.43,16.09-58.59,38.93-13.23,22.97-17.17,52.28-11.09,82.54,6.09,30.31,21.5,57.9,43.38,77.7,21.8,19.73,47.42,29.37,72.11,27.08,24.62-2.26,45.43-16.09,58.59-38.93,13.23-22.96,17.17-52.28,11.09-82.54-6.09-30.3-21.5-57.9-43.38-77.7h0c-19.7-17.84-42.52-27.41-64.96-27.41Z"/>
    <path class="cls-1" d="M520.43,449.59c-18.61,0-37.98-6.23-56.28-18.33-25.54-16.9-45.94-43.24-57.43-74.17-11.51-30.96-12.73-62.85-3.44-89.79,9.34-27.09,28.18-45.94,53.04-53.08,24.8-7.11,52.58-1.69,78.24,15.28h0c25.54,16.9,45.94,43.24,57.43,74.17,11.51,30.97,12.73,62.85,3.44,89.79-9.34,27.1-28.18,45.95-53.04,53.08-7.12,2.04-14.48,3.05-21.97,3.05ZM478.28,214.33c-7.2,0-14.27.97-21.09,2.93-23.84,6.84-41.93,24.98-50.93,51.07-9.05,26.25-7.84,57.38,3.41,87.66,11.26,30.31,31.23,56.11,56.22,72.64,24.88,16.46,51.74,21.74,75.63,14.88,23.84-6.84,41.93-24.98,50.92-51.08,9.05-26.25,7.84-57.38-3.41-87.66-11.26-30.31-31.23-56.11-56.22-72.64h0c-17.77-11.75-36.55-17.81-54.54-17.81Z"/>
    <path class="cls-1" d="M525.64,451.44c-14.03,0-28.77-3.37-43.48-10.1-28.09-12.85-52.76-36.42-69.45-66.39-16.7-29.97-23.43-62.78-18.97-92.38,4.49-29.77,19.77-52.74,43.01-64.68,23.22-11.92,51.56-11.37,79.8,1.54h0c28.09,12.85,52.76,36.42,69.45,66.39,16.7,29.98,23.44,62.78,18.97,92.38-4.49,29.77-19.77,52.74-43.01,64.68-11.12,5.71-23.42,8.57-36.32,8.57ZM473.08,212.56c-12.39,0-24.19,2.73-34.85,8.2-22.29,11.45-36.95,33.57-41.29,62.29-4.36,28.9,2.24,60.97,18.59,90.32,16.36,29.37,40.5,52.46,67.97,65.02,27.33,12.5,54.66,13.07,76.97,1.6,22.29-11.45,36.95-33.57,41.29-62.29,4.36-28.89-2.24-60.97-18.59-90.32-16.36-29.37-40.5-52.46-67.97-65.02h0c-14.28-6.53-28.56-9.8-42.13-9.8Z"/>
    <path class="cls-1" d="M530.07,452.49c-9.14,0-18.67-1.32-28.41-3.99-29.91-8.19-58.31-28.12-79.95-56.14-21.64-28.01-33.97-60.77-34.71-92.24-.74-31.65,10.3-58.24,31.11-74.85,20.82-16.62,48.85-21.24,78.94-13.01h0c29.91,8.19,58.31,28.13,79.95,56.14,21.64,28.01,33.97,60.77,34.71,92.24.74,31.66-10.3,58.24-31.11,74.85-14.07,11.24-31.45,16.99-50.53,16.99ZM468.66,211.6c-18.34,0-35.01,5.5-48.48,16.26-19.98,15.96-30.58,41.59-29.86,72.18.72,30.77,12.8,62.84,34.01,90.29,21.21,27.45,48.98,46.97,78.2,54.97,29.04,7.95,56.03,3.55,75.99-12.4,19.97-15.95,30.58-41.59,29.86-72.18-.72-30.77-12.8-62.84-34.01-90.29-21.21-27.44-48.98-46.97-78.2-54.97-9.44-2.58-18.67-3.86-27.51-3.86Z"/>
    <path class="cls-1" d="M532.97,452.91c-3.55,0-7.17-.18-10.85-.54-30.9-3.03-62.34-18.51-88.53-43.6-26.17-25.07-43.99-56.77-50.18-89.24-6.22-32.64.03-62.19,17.62-83.2,17.62-21.05,44.45-30.97,75.56-27.93,30.9,3.02,62.34,18.51,88.53,43.6,26.17,25.07,43.99,56.77,50.18,89.24,6.22,32.64-.04,62.19-17.62,83.2-15.54,18.56-38.24,28.47-64.71,28.47ZM465.76,211.27c-25.46,0-47.24,9.48-62.12,27.25-16.92,20.21-22.92,48.75-16.89,80.37,6.06,31.79,23.53,62.83,49.19,87.42,25.64,24.56,56.36,39.72,86.51,42.67,29.94,2.93,55.73-6.56,72.61-26.73,16.92-20.21,22.91-48.75,16.89-80.37-6.06-31.79-23.53-62.83-49.19-87.42-25.64-24.57-56.36-39.72-86.51-42.67-3.56-.35-7.06-.52-10.5-.52Z"/>
    <path class="cls-1" d="M533.71,453c-28.35,0-58.38-10.26-85.56-29.4-30.12-21.21-53.17-50.8-64.91-83.32-11.78-32.67-10.75-64.4,2.9-89.37,13.7-25.05,38.42-40.24,69.61-42.78h0c30.98-2.5,64.66,7.8,94.83,29.03,30.12,21.21,53.17,50.8,64.91,83.32,11.78,32.67,10.75,64.4-2.9,89.37-13.71,25.05-38.42,40.24-69.61,42.77-3.06.25-6.15.37-9.26.37ZM456.03,211.62h0c-29.97,2.44-53.7,16.99-66.82,40.97-13.17,24.07-14.12,54.79-2.68,86.5,11.49,31.85,34.09,60.85,63.63,81.65,29.5,20.77,62.36,30.86,92.53,28.4,29.97-2.44,53.7-16.98,66.82-40.97,13.17-24.07,14.12-54.79,2.68-86.5-11.49-31.85-34.09-60.85-63.63-81.65-29.5-20.77-62.36-30.88-92.53-28.41Z"/>
    <path class="cls-1" d="M532.74,453.13c-21.96,0-45.18-5.69-67.68-16.81-33.35-16.48-61.2-42.94-78.4-74.51-17.26-31.68-21.75-64.73-12.65-93.07,9.14-28.46,30.86-48.72,61.14-57.06,30.1-8.28,65.09-3.75,98.51,12.77,33.35,16.48,61.2,42.94,78.4,74.51,17.26,31.68,21.76,64.73,12.65,93.07-9.14,28.46-30.85,48.73-61.14,57.06-9.83,2.7-20.19,4.04-30.83,4.04ZM465.98,211.22c-10.33,0-20.36,1.3-29.89,3.92-29.08,8-49.92,27.42-58.68,54.69-8.8,27.4-4.4,59.45,12.39,90.26,16.85,30.92,44.14,56.85,76.84,73.01,32.63,16.12,66.71,20.58,95.98,12.53,29.08-8,49.92-27.42,58.67-54.69,8.8-27.39,4.4-59.45-12.39-90.26-16.85-30.92-44.14-56.85-76.83-73.01-22.01-10.88-44.68-16.44-66.09-16.44Z"/>
    <path class="cls-1" d="M529.89,453.6c-14.86,0-30.36-2.39-45.96-7.19-35.73-11-67.75-33.34-90.17-62.92-22.48-29.66-32.64-63.08-28.61-94.08,4.06-31.15,21.92-56.11,50.3-70.28h0c28.24-14.1,63.51-15.8,99.33-4.78,35.72,10.99,67.75,33.34,90.17,62.92,22.48,29.66,32.64,63.08,28.61,94.08-4.06,31.15-21.92,56.11-50.3,70.28-15.94,7.96-34.12,11.97-53.37,11.97ZM468.82,210.84c-18.68,0-36.3,3.88-51.72,11.58h0c-27.25,13.61-44.4,37.57-48.29,67.47-3.91,30.04,5.99,62.5,27.89,91.39,21.96,28.97,53.32,50.86,88.32,61.63,34.9,10.74,69.21,9.12,96.6-4.56,27.25-13.61,44.4-37.57,48.29-67.46,3.91-30.04-5.99-62.5-27.89-91.39-21.96-28.97-53.33-50.86-88.32-61.62-15.25-4.69-30.39-7.03-44.88-7.03Z"/>
    <path class="cls-1" d="M525.01,454.81c-6.78,0-13.69-.45-20.71-1.38-37.11-4.87-72.55-22.19-99.78-48.76-27.28-26.63-43.08-59.39-44.49-92.24-1.41-32.99,11.84-62.11,37.31-81.97h0c25.38-19.8,59.85-28.01,97.07-23.13,37.11,4.87,72.55,22.19,99.77,48.77,27.28,26.63,43.08,59.39,44.49,92.24,1.41,33-11.84,62.11-37.31,81.98-20.59,16.06-47.18,24.5-76.36,24.5ZM473.71,209.73c-28.34,0-54.11,8.16-74.04,23.7-24.48,19.1-37.22,47.09-35.86,78.84,1.36,31.89,16.76,63.74,43.35,89.7,26.65,26.01,61.32,42.96,97.63,47.72,36.2,4.75,69.68-3.19,94.26-22.36,24.48-19.1,37.22-47.1,35.86-78.84-1.36-31.88-16.76-63.74-43.35-89.7-26.65-26.01-61.32-42.96-97.63-47.72-6.85-.9-13.6-1.34-20.21-1.34Z"/>
    <path class="cls-1" d="M518.18,457.16c-34.99,0-70.01-11.41-99.38-32.51-31.49-22.62-52.73-53.67-59.82-87.45-7.11-33.9.88-66.47,22.49-91.7h0c21.57-25.17,54.11-40,91.64-41.74,37.41-1.75,75.35,9.74,106.8,32.33,31.49,22.62,52.73,53.67,59.82,87.45,7.11,33.9-.88,66.47-22.49,91.7-21.57,25.17-54.11,39.99-91.64,41.74-2.47.12-4.95.17-7.42.17ZM480.55,207.48c-2.42,0-4.84.06-7.25.17-36.45,1.69-68.02,16.04-88.88,40.39h0c-20.82,24.29-28.5,55.68-21.64,88.38,6.89,32.83,27.59,63.05,58.29,85.1,30.74,22.08,67.79,33.26,104.36,31.61,36.45-1.69,68.02-16.04,88.88-40.39,20.82-24.3,28.5-55.68,21.64-88.38-6.88-32.83-27.58-63.05-58.29-85.1-28.71-20.62-62.94-31.77-97.11-31.77Z"/>
    <path class="cls-1" d="M511.37,460.93c-25.56,0-51.32-6.15-75.03-18.15-34.94-17.69-61.26-46-74.1-79.71-12.88-33.81-10.67-68.98,6.22-99.05,16.87-30.04,46.36-51.36,83.04-60.03,36.59-8.65,75.96-3.67,110.88,14,34.94,17.69,61.26,46,74.09,79.71,12.87,33.8,10.67,68.98-6.22,99.05-16.87,30.04-46.36,51.35-83.04,60.03-11.74,2.78-23.77,4.15-35.85,4.15ZM487.35,203.82c-11.77,0-23.49,1.34-34.93,4.04-35.58,8.41-64.17,29.05-80.48,58.11h0c-16.3,29.02-18.42,63.01-5.98,95.69,12.49,32.78,38.12,60.33,72.18,77.57,34.08,17.26,72.5,22.12,108.17,13.68,35.58-8.41,64.17-29.05,80.48-58.11,16.3-29.02,18.42-63.01,5.97-95.69-12.49-32.78-38.12-60.33-72.18-77.58-23.15-11.72-48.31-17.72-73.24-17.72Z"/>
    <path class="cls-1" d="M505.7,466.04c-16.33,0-32.83-2.55-48.93-7.68-37.5-11.96-68.34-36.49-86.83-69.09-18.53-32.66-22.46-69.49-11.06-103.7,11.39-34.21,36.73-61.69,71.35-77.39,34.56-15.67,74.24-17.71,111.73-5.76,37.5,11.96,68.34,36.49,86.83,69.09,18.53,32.66,22.46,69.49,11.06,103.71-11.39,34.21-36.73,61.69-71.35,77.39-19.72,8.94-41.1,13.44-62.79,13.44ZM493.02,198.8c-21.12,0-41.93,4.38-61.11,13.08-33.57,15.22-58.14,41.85-69.17,74.96-11.03,33.11-7.21,68.77,10.74,100.4,17.99,31.7,48.01,55.57,84.53,67.22,36.53,11.64,75.17,9.66,108.8-5.59,33.57-15.22,58.14-41.84,69.17-74.96,11.03-33.11,7.21-68.77-10.74-100.41-17.99-31.7-48.01-55.57-84.53-67.22-15.69-5-31.78-7.49-47.69-7.49Z"/>
    <path class="cls-1" d="M501.53,472.33c-7.26,0-14.58-.52-21.91-1.56-39.04-5.55-73.68-25.35-97.56-55.77-23.9-30.44-34.16-67.87-28.89-105.39,5.27-37.51,25.45-70.62,56.81-93.21,31.33-22.58,70.09-31.96,109.13-26.41,39.03,5.54,73.68,25.35,97.56,55.77,23.9,30.44,34.16,67.87,28.88,105.38-5.28,37.52-25.45,70.62-56.81,93.21-25.45,18.34-55.8,27.97-87.21,27.97ZM497.18,192.62c-30.54,0-60.03,9.36-84.76,27.18-30.43,21.92-50,54.03-55.12,90.4-5.11,36.38,4.84,72.68,28.03,102.22,23.21,29.56,56.9,48.81,94.86,54.21,37.96,5.39,75.64-3.72,106.09-25.66,30.43-21.92,50-54.03,55.12-90.4,5.12-36.38-4.84-72.68-28.03-102.22-23.22-29.57-56.9-48.82-94.86-54.21-7.13-1.01-14.26-1.52-21.33-1.52Z"/>
    <path class="cls-1" d="M499.02,479.56c-37.5,0-73.04-14.12-100.57-40.09-28.81-27.18-45.4-64.08-46.72-103.89h0c-1.32-39.82,12.79-77.79,39.74-106.93,26.95-29.14,63.52-45.96,102.95-47.35,39.43-1.39,77.03,12.82,105.85,40,28.81,27.18,45.41,64.08,46.72,103.9,1.32,39.82-12.8,77.79-39.74,106.93-26.95,29.15-63.51,45.96-102.95,47.35-1.76.06-3.52.09-5.28.09ZM499.68,185.5c-1.7,0-3.4.03-5.12.09-38.28,1.35-73.78,17.67-99.95,45.97-26.17,28.31-39.88,65.2-38.6,103.87h0c1.28,38.68,17.4,74.52,45.38,100.91,27.98,26.39,64.51,40.22,102.75,38.83,38.29-1.35,73.78-17.67,99.95-45.97,26.17-28.3,39.88-65.19,38.6-103.88-1.28-38.68-17.4-74.52-45.38-100.91-26.72-25.21-61.23-38.92-97.64-38.92Z"/>
    <path class="cls-1" d="M499.36,487.4c-28.37,0-56.16-8.71-80.51-25.56-33.09-22.9-55.83-58.1-64.04-99.12h0c-8.21-41-.9-82.9,20.56-118.01,21.49-35.14,54.59-59.26,93.2-67.91,38.64-8.66,78.17-.8,111.3,22.13,33.09,22.9,55.83,58.11,64.04,99.12,8.2,40.99.91,82.9-20.55,118.01-21.48,35.14-54.58,59.26-93.21,67.91-10.24,2.3-20.55,3.43-30.78,3.43ZM359.13,361.85c7.98,39.89,30.08,74.11,62.23,96.36,32.11,22.22,70.4,29.84,107.83,21.46,37.45-8.39,69.56-31.8,90.41-65.91,20.88-34.16,27.98-74.94,19.99-114.84-7.98-39.89-30.08-74.11-62.23-96.36-32.11-22.22-70.4-29.85-107.83-21.46-37.44,8.39-69.55,31.79-90.41,65.91-20.88,34.15-27.98,74.94-20,114.84h0Z"/>
    <path class="cls-1" d="M502.65,495.3c-20.24,0-40.54-4.68-59.82-14.01-36.57-17.7-65.08-50.02-80.28-91.03h0c-15.18-40.96-15.27-85.7-.25-125.97,15.05-40.34,43.46-71.39,80-87.42,36.59-16.06,76.92-15.13,113.57,2.61,36.57,17.7,65.08,50.03,80.28,91.03,15.18,40.96,15.27,85.7.25,125.97-15.05,40.34-43.46,71.39-80,87.42-17.34,7.61-35.52,11.41-53.75,11.41ZM366.79,388.7c14.79,39.9,42.5,71.34,78.01,88.53,35.44,17.14,74.43,18.05,109.79,2.53,35.41-15.54,62.97-45.67,77.59-84.86,14.65-39.26,14.56-82.88-.25-122.82-14.79-39.9-42.5-71.34-78.01-88.53-35.44-17.15-74.43-18.05-109.79-2.53-35.41,15.54-62.97,45.68-77.59,84.87-14.65,39.26-14.55,82.88.25,122.82h0Z"/>
    <path class="cls-1" d="M508.22,502.79c-12.69,0-25.57-1.89-38.37-5.71-39.11-11.66-72.81-39.97-94.9-79.7h0c-22.05-39.66-29.9-85.98-22.1-130.43,7.81-44.55,30.39-81.91,63.59-105.2,33.28-23.35,73.21-29.78,112.42-18.07,39.11,11.67,72.81,39.97,94.9,79.7,22.05,39.66,29.9,85.98,22.1,130.44-7.81,44.54-30.39,81.9-63.59,105.2-22.42,15.73-47.86,23.78-74.06,23.78ZM490.52,162.62c-25.27,0-49.8,7.76-71.42,22.93-32.18,22.58-54.09,58.88-61.69,102.21-7.61,43.42.05,88.65,21.59,127.38h0c21.5,38.66,54.23,66.19,92.17,77.51,37.83,11.28,76.34,5.1,108.44-17.43,32.18-22.58,54.09-58.88,61.69-102.2,7.61-43.41-.05-88.65-21.59-127.38-21.5-38.66-54.23-66.19-92.17-77.51-12.35-3.68-24.77-5.51-37.01-5.51Z"/>
    <path class="cls-1" d="M515.24,509.51c-5.29,0-10.63-.33-16.02-.98-40.57-4.95-78.7-28.14-107.36-65.29-28.59-37.06-44.35-83.61-44.4-131.09-.04-47.57,15.7-90.39,44.33-120.59,28.74-30.31,66.99-44.28,107.69-39.31,40.57,4.95,78.7,28.14,107.36,65.29,28.59,37.06,44.35,83.61,44.39,131.09.04,47.56-15.7,90.39-44.33,120.59-24.93,26.3-57.03,40.29-91.67,40.29ZM395.63,440.33c27.88,36.14,64.87,58.68,104.17,63.47,39.17,4.78,75.98-8.67,103.66-37.86,27.79-29.31,43.07-70.97,43.03-117.31-.04-46.43-15.46-91.96-43.4-128.19-27.88-36.14-64.87-58.68-104.17-63.48-39.16-4.76-75.98,8.67-103.66,37.87-27.79,29.31-43.07,70.97-43.03,117.31.04,46.43,15.46,91.96,43.4,128.19h0Z"/>
    <path class="cls-1" d="M522.89,515.21c-38.49,0-77.24-16.97-109.88-48.29h0c-34.58-33.18-58.18-78.54-66.46-127.72-8.29-49.26-.23-96.49,22.7-133,23.05-36.69,58.31-58.16,99.29-60.45,40.87-2.3,82.47,14.79,117.16,48.09,34.58,33.18,58.18,78.54,66.46,127.72,8.29,49.26.23,96.49-22.7,133-23.05,36.69-58.31,58.16-99.29,60.45-2.42.14-4.85.2-7.28.2ZM416.39,463.4c33.71,32.35,74,48.92,113.51,46.74,39.36-2.2,73.26-22.87,95.44-58.18,22.29-35.49,30.11-81.52,22.02-129.59-8.11-48.15-31.2-92.55-65.03-125.01-33.71-32.35-74.02-48.93-113.51-46.74-39.36,2.21-73.26,22.87-95.44,58.18-22.29,35.49-30.11,81.52-22.02,129.59,8.11,48.15,31.21,92.55,65.03,125.01h0Z"/>
    <path class="cls-1" d="M531.28,519.75c-31.08,0-63.34-10.97-93.33-32.13h0c-39.81-28.07-70.93-70.77-87.62-120.22-16.71-49.5-16.97-99.9-.74-141.9,16.32-42.24,47.33-70.94,87.32-80.81,39.88-9.86,83.87.25,123.86,28.45,39.81,28.08,70.93,70.77,87.62,120.22,16.71,49.51,16.97,99.9.74,141.89-16.32,42.24-47.33,70.94-87.32,80.82-9.96,2.46-20.18,3.67-30.52,3.67ZM440.83,483.53c38.78,27.35,81.31,37.17,119.77,27.68,38.36-9.47,68.14-37.09,83.85-77.76,15.81-40.91,15.52-90.09-.82-138.49-16.35-48.45-46.81-90.26-85.76-117.73-38.78-27.35-81.32-37.17-119.77-27.68-38.36,9.47-68.13,37.09-83.85,77.76-15.81,40.91-15.52,90.09.82,138.49,16.35,48.45,46.81,90.26,85.76,117.73h0Z"/>
    <path class="cls-1" d="M539.71,522.96c-23.82,0-48.83-6.17-73.6-18.43h0c-44.09-21.83-82.15-60.41-107.17-108.61-25.03-48.23-34.04-100.38-25.36-146.84,8.73-46.74,34.29-82.14,71.96-99.69,37.62-17.52,82.75-15.09,127.06,6.86,44.09,21.83,82.15,60.4,107.17,108.61,25.03,48.23,34.04,100.38,25.36,146.84-8.73,46.74-34.29,82.14-71.96,99.69-16.6,7.73-34.66,11.58-53.46,11.58ZM468.39,499.92c42.89,21.23,86.44,23.65,122.61,6.8,36.13-16.83,60.66-50.91,69.08-95.98,8.47-45.34-.36-96.31-24.87-143.53-24.52-47.24-61.77-85.02-104.89-106.37-42.89-21.24-86.44-23.66-122.61-6.8-36.13,16.83-60.66,50.91-69.08,95.98-8.47,45.34.36,96.31,24.87,143.53,24.52,47.24,61.77,85.02,104.89,106.37h0Z"/>
    <path class="cls-1" d="M547.11,524.87c-16.16,0-33.06-2.64-50.31-7.96-47.23-14.58-91.43-47.61-124.44-93.02-33.01-45.4-50.93-97.78-50.45-147.49.48-50,19.49-91.34,53.53-116.4,34.04-25.07,78.95-30.8,126.47-16.14,47.23,14.58,91.43,47.61,124.44,93.01,33.01,45.4,50.93,97.78,50.45,147.49-.48,50-19.5,91.34-53.53,116.41-21.69,15.97-47.79,24.09-76.16,24.09ZM451.63,141.18c-27.27,0-52.3,7.77-73.07,23.06-32.67,24.06-50.92,63.91-51.38,112.21-.47,48.59,17.09,99.85,49.44,144.34,32.35,44.49,75.58,76.83,121.73,91.08,45.87,14.16,89.12,8.71,121.79-15.35,32.67-24.06,50.92-63.91,51.39-112.21.47-48.59-17.09-99.85-49.44-144.34-32.35-44.49-75.58-76.83-121.73-91.08-16.72-5.16-33.09-7.72-48.72-7.72Z"/>
    <path class="cls-1" d="M552.31,525.69c-7.53,0-15.24-.52-23.11-1.55h0c-49.08-6.49-98.36-32.66-138.77-73.71-40.38-41.01-67.11-92.02-75.27-143.61-8.2-51.86,3.34-98.15,32.48-130.32,29.2-32.24,72.49-46.39,121.87-39.87,49.08,6.48,98.36,32.66,138.77,73.71,40.38,41.02,67.11,92.02,75.27,143.61,8.2,51.86-3.34,98.14-32.48,130.32-24.54,27.1-59.04,41.43-98.76,41.43ZM529.91,518.78c47.59,6.3,89.19-7.26,117.15-38.14,28.02-30.94,39.08-75.64,31.15-125.85-7.98-50.49-34.18-100.44-73.78-140.66-39.57-40.19-87.74-65.81-135.63-72.14-47.59-6.29-89.19,7.26-117.15,38.14-28.02,30.94-39.08,75.63-31.14,125.85,7.98,50.49,34.18,100.44,73.78,140.66,39.57,40.19,87.74,65.81,135.63,72.14h0Z"/>
    <path class="cls-1" d="M554.13,525.89c-47.11,0-96.95-18.02-141.3-51.25-46.89-35.14-82.06-83.11-99.05-135.08-17.06-52.21-13.74-102.24,9.34-140.88,23.16-38.77,63.35-61.36,113.17-63.63,49.52-2.24,102.62,15.89,149.57,51.07,46.89,35.14,82.06,83.11,99.04,135.08,17.06,52.2,13.74,102.24-9.34,140.88-23.16,38.76-63.35,61.36-113.17,63.63-2.75.12-5.51.19-8.27.19ZM562.15,520.17l.13,2.77-.13-2.77c47.9-2.18,86.49-23.82,108.67-60.93,22.25-37.24,25.38-85.65,8.83-136.31-16.63-50.9-51.12-97.91-97.1-132.36-45.92-34.41-97.76-52.14-145.99-49.97-47.9,2.18-86.49,23.82-108.67,60.94-22.25,37.24-25.38,85.65-8.83,136.31,16.63,50.9,51.12,97.9,97.1,132.36,45.92,34.41,97.79,52.15,145.99,49.96Z"/>
    <path class="cls-1" d="M553.11,526.05c-37.08,0-76.34-10.34-113.99-30.4-52.28-27.86-95.25-71.16-121-121.92-25.84-50.96-31.26-103.37-15.26-147.59,16.07-44.41,51.74-75.18,100.44-86.64,48.41-11.39,103.91-2.3,156.3,25.61,52.28,27.86,95.25,71.16,121,121.92,25.84,50.95,31.26,103.37,15.25,147.59-16.07,44.41-51.74,75.18-100.44,86.64-13.61,3.2-27.8,4.79-42.3,4.79ZM445.61,140.4c-14.08,0-27.82,1.53-41.01,4.64-46.77,11.01-81,40.5-96.4,83.04-15.46,42.73-10.14,93.54,14.98,143.08,25.22,49.73,67.34,92.16,118.6,119.47,51.16,27.26,105.25,36.17,152.32,25.09,46.77-11.01,81-40.49,96.4-83.03,15.46-42.73,10.14-93.54-14.98-143.08-25.22-49.73-67.34-92.16-118.6-119.47-36.82-19.62-75.17-29.74-111.31-29.74Z"/>
    <path class="cls-1" d="M549.19,526.66c-26.02,0-53.25-4.67-80.52-14.03-56.35-19.33-106.2-56.36-140.37-104.29-34.27-48.06-48.7-101.36-40.63-150.06,8.11-48.94,37.9-87.33,83.87-108.12,45.74-20.68,102.03-21.4,158.52-2.02,56.35,19.33,106.2,56.36,140.37,104.28,34.27,48.06,48.7,101.36,40.63,150.07-8.11,48.93-37.9,87.33-83.87,108.12-23.65,10.69-50.13,16.05-77.99,16.05ZM449.52,139.95c-27.04,0-52.69,5.18-75.58,15.53-44.14,19.96-72.74,56.81-80.52,103.76-7.82,47.17,6.25,98.93,39.62,145.72,33.47,46.94,82.3,83.21,137.51,102.15,55.07,18.88,109.84,18.24,154.21-1.82,44.14-19.96,72.73-56.8,80.52-103.75,7.82-47.17-6.25-98.93-39.62-145.72-33.47-46.93-82.31-83.21-137.51-102.15-26.66-9.14-53.26-13.71-78.63-13.71Z"/>
    <path class="cls-1" d="M542.04,528.3c-13.47,0-27.28-1.15-41.3-3.47-58.88-9.74-114.43-39.03-156.42-82.48-42.08-43.54-65.53-96.11-66.04-148.03-.51-52.15,22.15-97.36,63.8-127.3,41.49-29.82,96.84-40.87,155.89-31.1,58.88,9.74,114.43,39.03,156.42,82.47,42.08,43.54,65.53,96.11,66.04,148.03.51,52.15-22.15,97.37-63.8,127.3-31.63,22.74-71.34,34.56-114.59,34.56ZM456.67,138.45c-42,0-80.48,11.43-111.09,33.44-40.02,28.77-61.79,72.23-61.3,122.38.49,50.38,23.35,101.49,64.36,143.93,41.1,42.53,95.47,71.2,153.09,80.73,57.46,9.51,111.24-1.17,151.42-30.05h0c40.02-28.77,61.79-72.23,61.3-122.38-.49-50.38-23.35-101.49-64.36-143.93-41.1-42.52-95.47-71.19-153.09-80.73-13.69-2.26-27.18-3.39-40.32-3.39Z"/>
    <path class="cls-1" d="M531.64,531.65c-58.78,0-117.48-20.17-165.62-56.95-48.99-37.43-81.21-87.62-90.72-141.32-9.55-53.91,4.9-104.86,40.69-143.47,35.7-38.52,88.34-60.1,148.23-60.77,59.64-.68,119.55,19.56,168.47,56.94,48.99,37.44,81.21,87.62,90.72,141.32,9.55,53.91-4.9,104.86-40.69,143.48-35.7,38.52-88.34,60.1-148.23,60.77-.95.01-1.9.02-2.85.02ZM467.08,135.27c-.93,0-1.86,0-2.79.02-58.19.65-109.25,21.53-143.79,58.8-34.45,37.17-48.35,86.26-39.15,138.22,9.24,52.18,40.63,101.01,88.4,137.5,47.83,36.55,106.38,56.32,164.67,55.68,58.19-.65,109.25-21.53,143.79-58.8,34.45-37.17,48.35-86.26,39.15-138.22-9.24-52.17-40.63-101.01-88.39-137.5-47.07-35.97-104.46-55.69-161.88-55.69Z"/>
    <path class="cls-1" d="M520.51,537.2c-43.67,0-87.65-11.22-127.51-32.96-54.75-29.86-95.19-75.98-113.87-129.88-18.74-54.07-13.36-109.47,15.15-155.99,28.47-46.46,76.59-78.46,135.49-90.1,58.75-11.61,121.23-1.59,175.94,28.25,54.75,29.85,95.19,75.98,113.87,129.88,18.74,54.07,13.36,109.46-15.14,155.98-28.47,46.46-76.59,78.46-135.49,90.11-15.94,3.15-32.17,4.71-48.43,4.71ZM478.21,129.87c-15.86,0-31.67,1.52-47.22,4.59-57.15,11.3-103.8,42.27-131.33,87.21-27.5,44.88-32.67,98.37-14.57,150.63,18.17,52.42,57.57,97.31,110.94,126.41,53.41,29.12,114.39,38.92,171.7,27.6,57.16-11.3,103.8-42.27,131.34-87.21,27.5-44.88,32.67-98.38,14.56-150.62-18.17-52.42-57.56-97.31-110.93-126.41-38.93-21.23-81.87-32.19-124.48-32.19Z"/>
    <path class="cls-1" d="M511.06,544.96c-28.89,0-58.09-4.99-86.32-15-59.12-20.95-106.97-61.38-134.73-113.83-27.81-52.57-32.13-110.91-12.16-164.28,19.96-53.35,61.8-95.32,117.8-118.16,55.89-22.8,119.22-23.82,178.33-2.88,59.13,20.95,106.97,61.37,134.73,113.83,27.81,52.57,32.13,110.91,12.16,164.29-19.96,53.35-61.8,95.31-117.8,118.16-29.19,11.91-60.42,17.88-92,17.88ZM487.65,122.28c-30.76,0-61.15,5.81-89.56,17.4-54.31,22.15-94.86,62.79-114.18,114.43-19.32,51.62-15.12,108.08,11.82,158.99,26.99,51.02,73.58,90.36,131.17,110.76,57.61,20.42,119.3,19.43,173.72-2.77,54.31-22.15,94.86-62.79,114.18-114.43,19.31-51.62,15.12-108.08-11.82-158.99-26.99-51.02-73.58-90.35-131.17-110.76-27.53-9.76-56-14.63-84.17-14.63Z"/>
    <path class="cls-1" d="M503.91,554.64c-14.4,0-28.92-1.27-43.43-3.82-61.9-10.92-116.07-44.09-152.52-93.41-36.49-49.37-50.87-109-40.48-167.92,10.39-58.92,44.29-110.04,95.47-143.95,51.12-33.88,113.37-46.53,175.27-35.61,61.91,10.92,116.07,44.09,152.52,93.41,36.49,49.37,50.87,109,40.48,167.92-10.39,58.91-44.29,110.03-95.47,143.95-39.14,25.94-84.81,39.43-131.84,39.43ZM494.8,112.76c-45.75,0-90.13,13.11-128.18,38.32-49.64,32.9-82.53,82.46-92.6,139.57-10.07,57.1,3.88,114.93,39.28,162.82,35.44,47.94,88.12,80.2,148.34,90.81,60.23,10.62,120.75-1.67,170.45-34.6,49.64-32.9,82.53-82.46,92.6-139.57,10.07-57.1-3.88-114.93-39.28-162.82-35.44-47.95-88.12-80.2-148.34-90.81-14.12-2.49-28.26-3.72-42.27-3.72Z"/>
    <path class="cls-1" d="M499.36,565.92c-62.91,0-122.06-24.5-166.55-68.99-44.49-44.48-68.99-103.63-68.99-166.54s24.5-122.06,68.99-166.55c44.48-44.49,103.63-68.99,166.55-68.99s122.06,24.5,166.55,68.99c44.49,44.49,68.98,103.63,68.98,166.55s-24.5,122.06-68.98,166.54c-44.49,44.49-103.64,68.99-166.55,68.99ZM499.36,101.66c-61.1,0-118.53,23.79-161.73,66.99-43.2,43.2-66.99,100.64-66.99,161.73s23.79,118.53,66.99,161.73c43.2,43.2,100.64,66.99,161.73,66.99s118.53-23.79,161.73-66.99c43.2-43.2,66.99-100.63,66.99-161.73s-23.79-118.53-66.99-161.73c-43.2-43.2-100.64-66.99-161.73-66.99Z"/>
  </g>
</svg>