<?xml version="1.0" encoding="UTF-8"?><svg id="Layer_1" xmlns="http://www.w3.org/2000/svg" width="1000" height="1000" viewBox="0 0 1000 1000"><defs><style>.cls-1{fill:#666;}.cls-1,.cls-2{stroke-width:0px;}.cls-2{fill:#151515;}</style></defs><path class="cls-2" d="m349.29,322.44l-39.84-21.27,4.83-4,39.52,21.54-4.51,3.73Zm.46-.38l-13.72-42.89,4.83-3.99,13.44,43.11-4.55,3.77Z"/><path class="cls-2" d="m369.29,306.18l-5.65-44.69,5.21-2.91,5.91,44.55-5.47,3.05Zm29.4-16.4l-34.79-28.44,5.21-2.91,35.05,28.3-5.47,3.05Zm-27.91,2.78l-2.56-4.59,21.01-11.72,2.56,4.59-21.01,11.72Z"/><path class="cls-2" d="m413.79,283.34l-13.7-39.48,5.52-1.92,13.7,39.48-5.53,1.92Zm4.23-1.47l-1.76-5.08,19.63-6.81,1.76,5.07-19.62,6.81Z"/><path class="cls-2" d="m431.88,238.91l-1.04-5.27,31.44-6.22,1.05,5.27-31.45,6.22Zm19.89,33.18l-7.44-37.59,5.8-1.15,7.44,37.59-5.8,1.15Z"/><path class="cls-2" d="m481.14,267.82l-2.87-41.69,5.84-.4,2.86,41.69-5.83.4Z"/><path class="cls-2" d="m497.6,266.38l17.68-21.79,14.42-17.94,7.03.47-17.31,20.79-14.68,18.94-7.15-.48Zm29.3,1.97l-12.01-20.73-14.37-22.92,7.03.47,11.96,19.71,14.55,23.95-7.15-.48Z"/><path class="cls-2" d="m579.74,281.8c-3.75-1.33-6.78-3.4-9.07-6.18-2.3-2.79-3.74-6-4.3-9.64-.56-3.64-.13-7.45,1.29-11.42,1.42-3.97,3.49-7.19,6.23-9.66s5.86-4.06,9.37-4.77c3.5-.71,7.13-.4,10.88.93,2.43.87,4.6,2.14,6.5,3.81,1.89,1.67,3.44,3.59,4.63,5.77,1.19,2.18,1.88,4.46,2.09,6.86l-5.75.49c-.16-1.79-.66-3.47-1.5-5.04-.83-1.57-1.92-2.94-3.24-4.14-1.33-1.19-2.84-2.09-4.52-2.69-2.63-.93-5.21-1.12-7.73-.54s-4.78,1.8-6.76,3.67-3.5,4.31-4.57,7.31c-1.07,3-1.43,5.87-1.08,8.62.35,2.74,1.34,5.13,2.96,7.17,1.62,2.04,3.76,3.53,6.42,4.47,1.72.62,3.48.85,5.26.7,1.79-.15,3.5-.61,5.15-1.39,1.65-.78,3.14-1.83,4.45-3.14l4.17,3.96c-1.7,1.8-3.7,3.22-6.01,4.26-2.32,1.03-4.75,1.61-7.31,1.74-2.56.12-5.07-.26-7.55-1.14Z"/><path class="cls-2" d="m622.02,302.29c-3.45-2.13-6.04-4.8-7.75-8.01s-2.47-6.67-2.26-10.37c.21-3.71,1.41-7.34,3.6-10.9,2.24-3.62,4.95-6.35,8.17-8.18,3.21-1.83,6.62-2.72,10.23-2.66,3.61.06,7.15,1.15,10.6,3.28,3.46,2.13,6.02,4.8,7.69,8,1.67,3.2,2.4,6.65,2.19,10.33-.21,3.68-1.43,7.31-3.64,10.9-2.21,3.59-4.92,6.31-8.13,8.17-3.2,1.86-6.6,2.76-10.18,2.69-3.58-.06-7.08-1.15-10.51-3.26Zm2.87-4.54c2.4,1.48,4.9,2.21,7.5,2.17,2.59-.04,5.05-.77,7.38-2.19,2.32-1.42,4.32-3.48,5.99-6.19,1.65-2.67,2.58-5.38,2.8-8.13.22-2.74-.25-5.28-1.4-7.63-1.15-2.34-2.94-4.27-5.38-5.77-2.44-1.51-4.97-2.25-7.6-2.23-2.63.02-5.11.74-7.47,2.16s-4.35,3.48-6.01,6.15c-1.67,2.71-2.6,5.43-2.79,8.16-.19,2.74.31,5.29,1.49,7.65,1.18,2.37,3.01,4.31,5.48,5.84Z"/><path class="cls-2" d="m649.03,319.99l29.02-30.07,4.34,4.19-3.53,3.4-25.62,26.55-4.21-4.06Zm21.35,20.6l6.38-47.35,5.63.87-6.33,47.31-5.68-.83Zm0,0l29.02-30.07,4.26,4.11-29.01,30.07-4.26-4.1Z"/><path class="cls-2" d="m691.05,367.74c-1.28-1.83-2.22-3.63-2.83-5.41-.61-1.78-.93-3.47-.96-5.08-.03-1.61.16-3.09.58-4.44.41-1.36,1.02-2.53,1.83-3.53l4.76,3.59c-1,1.42-1.51,3.16-1.53,5.22-.02,2.05.64,4.09,2,6.1,1.68,2.41,3.49,3.98,5.42,4.69,1.93.72,3.7.51,5.29-.6,1.47-1.03,2.25-2.47,2.34-4.32.09-1.86-.32-3.95-1.22-6.28l-1.74-4.68c-.67-1.87-1.06-3.71-1.18-5.55-.12-1.84.16-3.55.85-5.14.68-1.59,1.88-2.98,3.57-4.17,3.13-2.19,6.3-2.88,9.48-2.07,3.19.81,6.12,3.14,8.81,6.99,1.55,2.22,2.54,4.39,2.98,6.51.44,2.12.46,4.11.05,5.97-.4,1.86-1.13,3.49-2.18,4.91l-4.81-3.56c1.08-1.58,1.6-3.35,1.57-5.32-.04-1.96-.74-3.93-2.11-5.88-1.43-2.06-3.06-3.34-4.87-3.84s-3.56-.17-5.26,1.01c-1.44,1-2.22,2.24-2.33,3.7-.12,1.47.18,3.12.88,4.96l1.79,4.65c1.45,3.74,1.88,7.12,1.28,10.13-.59,3.01-1.96,5.27-4.12,6.77-1.86,1.3-3.86,2-5.99,2.11-2.13.11-4.27-.44-6.39-1.65-2.13-1.21-4.11-3.13-5.96-5.78Z"/><path class="cls-2" d="m711.84,404.87c-1.32-2.94-1.87-5.8-1.66-8.58.22-2.78,1.15-5.28,2.78-7.5,1.65-2.22,3.9-3.97,6.77-5.26l2.39,5.34c-1.89.85-3.37,2.01-4.46,3.47-1.09,1.47-1.71,3.1-1.87,4.89-.15,1.79.19,3.63,1.04,5.52s2,3.38,3.45,4.47c1.45,1.09,3.08,1.71,4.89,1.86,1.81.15,3.66-.2,5.55-1.05l2.42,5.39c-2.87,1.29-5.69,1.8-8.44,1.53-2.76-.27-5.25-1.26-7.49-2.98-2.23-1.72-4.03-4.09-5.38-7.1Zm7.89-21.34l24.4-10.95,2.39,5.34-24.4,10.95-2.39-5.34Zm10.99,24.51l24.4-10.95,2.42,5.39-24.4,10.95-2.42-5.39Z"/><path class="cls-2" d="m723.59,433.27l40.54-10.14,1.42,5.68-40.54,10.14-1.42-5.68Zm1.08,4.34l5.21-1.3,5.04,20.15-5.21,1.3-5.04-20.15Z"/><path class="cls-2" d="m731.42,472.07l38.1-4.09.63,5.88-38.1,4.09-.63-5.88Zm34.81-16.89l5.34-.57,3.43,31.87-5.34.57-3.43-31.87Z"/><path class="cls-2" d="m733.09,501.74l41.78.82-.12,5.85-41.78-.82.12-5.85Z"/><path class="cls-2" d="m727.55,552.01l41.16,7.19-1.02,5.82-41.16-7.19,1.02-5.82Zm0,0l42.79-21.25,2.43,5.15-42.74,21.26-2.49-5.16Zm5.1-29.22l41.16,7.19-1.04,5.94-4.79-1.02-36.34-6.35,1.01-5.76Z"/><path class="cls-2" d="m714.67,589.11c1.59-3.91,3.85-7.03,6.8-9.38,2.95-2.35,6.28-3.77,9.98-4.26,3.7-.5,7.49.04,11.36,1.62,3.94,1.6,7.07,3.87,9.38,6.8,2.31,2.94,3.7,6.27,4.18,10.01.48,3.74-.07,7.56-1.66,11.47-.86,2.14-2.04,4.05-3.53,5.75-1.48,1.69-3.15,3.1-5,4.22s-3.75,1.86-5.71,2.23l-1.1-5.54c1.44-.27,2.84-.82,4.21-1.64,1.36-.82,2.58-1.84,3.66-3.06,1.08-1.22,1.9-2.54,2.49-3.98,1.15-2.84,1.53-5.62,1.13-8.34-.4-2.72-1.47-5.16-3.21-7.33-1.74-2.17-4.11-3.86-7.09-5.07-2.91-1.18-5.75-1.61-8.5-1.29-2.75.32-5.23,1.34-7.42,3.05-2.19,1.71-3.87,4-5.04,6.87-.94,2.32-1.31,4.59-1.09,6.8.22,2.21.98,4.2,2.28,5.95,1.31,1.75,3.1,3.09,5.39,4.02l-1.64,5.46c-3.43-1.39-6.11-3.35-8.05-5.88-1.94-2.53-3.08-5.38-3.42-8.57-.34-3.19.19-6.5,1.58-9.93Zm15.01,9.38l4.54,1.84-5.95,14.66-3.98-1.62.57-2.99,4.82-11.89Z"/><path class="cls-2" d="m694.29,646.86c.72-.95,1.61-1.64,2.67-2.05,1.07-.41,2.16-.56,3.29-.43,1.12.13,2.17.55,3.12,1.27s1.64,1.61,2.07,2.66c.43,1.05.57,2.13.43,3.24s-.58,2.14-1.3,3.1c-.72.95-1.6,1.65-2.65,2.11-1.05.45-2.13.62-3.26.49-1.12-.13-2.16-.55-3.11-1.27-.95-.72-1.64-1.61-2.07-2.66-.43-1.05-.58-2.15-.46-3.3.13-1.15.55-2.21,1.27-3.16Z"/><path class="cls-2" d="m646.58,681.24l12.78,43.17-4.92,3.89-12.5-43.4,4.64-3.67Zm.47-.37l39.37,22.13-4.91,3.89-39.04-22.39,4.59-3.63Z"/><path class="cls-2" d="m596.9,712.46l34.16,29.2-5.28,2.79-34.42-29.07,5.54-2.93Zm27.96-2.17l2.46,4.64-21.26,11.25-2.46-4.64,21.27-11.25Zm1.8-13.58l4.66,44.81-5.28,2.79-4.92-44.67,5.54-2.93Z"/><path class="cls-2" d="m577.4,719.94l1.65,5.11-19.77,6.38-1.65-5.11,19.77-6.38Zm4.26-1.38l12.83,39.77-5.57,1.8-12.83-39.77,5.57-1.8Z"/><path class="cls-2" d="m562.63,762.58l.93,5.29-31.57,5.54-.93-5.29,31.57-5.54Zm-19.16-33.61l6.62,37.75-5.82,1.02-6.62-37.75,5.82-1.02Z"/><path class="cls-2" d="m513.95,732.61l1.95,41.74-5.84.27-1.95-41.74,5.84-.27Z"/><path class="cls-2" d="m497.54,733.7l-18.14,21.4-14.81,17.62-7.02-.63,17.76-20.41,15.08-18.62,7.13.64Zm-29.25-2.6l11.56,20.99,13.87,23.23-7.02-.63-11.53-19.96-14.02-24.26,7.14.63Z"/><path class="cls-2" d="m415.78,716.5c3.72,1.42,6.7,3.54,8.94,6.38s3.6,6.08,4.08,9.73c.49,3.66-.03,7.45-1.53,11.4-1.5,3.94-3.65,7.12-6.44,9.52-2.79,2.41-5.95,3.93-9.47,4.57-3.52.64-7.15.25-10.86-1.17-2.41-.92-4.55-2.24-6.42-3.95-1.86-1.71-3.36-3.67-4.5-5.87s-1.78-4.5-1.94-6.9l5.76-.36c.13,1.79.59,3.48,1.39,5.06.8,1.59,1.86,2.98,3.16,4.21,1.3,1.22,2.79,2.15,4.46,2.79,2.61.99,5.18,1.23,7.72.7,2.54-.52,4.82-1.7,6.84-3.53,2.02-1.83,3.6-4.23,4.73-7.2,1.13-2.98,1.55-5.84,1.26-8.59-.29-2.75-1.23-5.16-2.8-7.23-1.57-2.07-3.68-3.61-6.32-4.61-1.71-.65-3.46-.93-5.25-.82-1.79.11-3.51.54-5.18,1.28s-3.18,1.76-4.51,3.04l-4.08-4.05c1.74-1.76,3.77-3.14,6.11-4.12,2.34-.98,4.78-1.51,7.34-1.58s5.06.37,7.52,1.3Z"/><path class="cls-2" d="m373.86,695.03c3.41,2.21,5.94,4.94,7.57,8.18,1.65,3.25,2.32,6.72,2.03,10.42-.29,3.7-1.57,7.31-3.84,10.81-2.32,3.57-5.1,6.24-8.35,8-3.25,1.76-6.68,2.58-10.29,2.44-3.61-.13-7.12-1.31-10.53-3.51-3.4-2.21-5.91-4.93-7.5-8.17-1.6-3.24-2.25-6.7-1.96-10.37.29-3.68,1.59-7.28,3.88-10.82,2.3-3.54,5.07-6.2,8.31-7.99s6.66-2.61,10.24-2.47c3.59.14,7.06,1.31,10.43,3.49Zm-2.97,4.48c-2.37-1.54-4.85-2.31-7.44-2.34-2.6-.02-5.07.65-7.42,2.02-2.36,1.36-4.4,3.38-6.13,6.06-1.71,2.64-2.71,5.33-2.98,8.06-.28,2.73.13,5.29,1.23,7.66,1.09,2.37,2.85,4.33,5.25,5.89,2.4,1.56,4.92,2.36,7.54,2.4,2.63.04,5.14-.62,7.52-1.99,2.38-1.38,4.43-3.38,6.14-6.02,1.73-2.67,2.72-5.37,2.98-8.1.25-2.73-.19-5.29-1.32-7.68-1.13-2.39-2.91-4.38-5.35-5.96Z"/><path class="cls-2" d="m326.45,655.56l-30.02,29.06-4.11-4.25,30.02-29.06,4.11,4.25Zm0,0l-7.98,47.11-5.6-1.06,7.94-47.07,5.64,1.02Zm20.63,21.32l-30.02,29.06-4.19-4.33,3.64-3.27,26.5-25.66,4.07,4.21Z"/><path class="cls-2" d="m306.33,628.13c1.24,1.85,2.14,3.68,2.71,5.47.58,1.8.86,3.5.85,5.1,0,1.61-.23,3.08-.67,4.43-.45,1.34-1.08,2.51-1.91,3.49l-4.68-3.7c1.03-1.4,1.57-3.13,1.65-5.18.06-2.05-.56-4.1-1.87-6.14-1.63-2.45-3.41-4.06-5.32-4.82-1.92-.76-3.68-.59-5.31.49-1.49.99-2.3,2.42-2.42,4.27-.13,1.85.23,3.96,1.08,6.31l1.64,4.72c.63,1.88.98,3.73,1.06,5.57.08,1.84-.25,3.55-.96,5.12-.72,1.58-1.94,2.94-3.66,4.09-3.18,2.12-6.35,2.74-9.52,1.86-3.16-.88-6.05-3.27-8.66-7.18-1.5-2.25-2.44-4.44-2.83-6.57-.39-2.13-.36-4.12.08-5.97.44-1.85,1.2-3.47,2.29-4.86l4.73,3.66c-1.11,1.56-1.67,3.31-1.68,5.28,0,1.97.65,3.94,1.98,5.93,1.39,2.08,2.98,3.4,4.78,3.95,1.8.55,3.56.25,5.28-.9,1.46-.97,2.26-2.19,2.41-3.65.15-1.46-.11-3.12-.77-4.97l-1.69-4.69c-1.37-3.78-1.72-7.16-1.06-10.16.66-3,2.08-5.22,4.27-6.68,1.89-1.26,3.9-1.92,6.03-1.97,2.14-.06,4.26.53,6.36,1.79,2.1,1.26,4.05,3.22,5.83,5.91Z"/><path class="cls-2" d="m267.55,586.99l-24.63,10.41-2.3-5.44,24.64-10.41,2.3,5.44Zm10.46,24.75l-24.63,10.41-2.28-5.39,24.63-10.41,2.28,5.39Zm8.36-21.16c1.26,2.97,1.75,5.84,1.47,8.61-.27,2.77-1.26,5.25-2.95,7.43-1.69,2.18-3.98,3.89-6.88,5.11l-2.28-5.39c1.91-.81,3.42-1.93,4.54-3.38,1.11-1.45,1.77-3.06,1.96-4.85s-.11-3.63-.92-5.54c-.8-1.91-1.92-3.42-3.35-4.55-1.43-1.13-3.04-1.78-4.85-1.97s-3.67.12-5.57.93l-2.3-5.44c2.89-1.23,5.72-1.68,8.47-1.35,2.76.33,5.23,1.38,7.43,3.15,2.19,1.78,3.94,4.18,5.22,7.23Z"/><path class="cls-2" d="m275.23,561.89l-40.75,9.25-1.3-5.71,40.75-9.25,1.3,5.7Zm-.99-4.37l-5.24,1.19-4.59-20.26,5.24-1.19,4.59,20.26Z"/><path class="cls-2" d="m233.07,538.99l-5.35.46-2.72-31.94,5.35-.46,2.72,31.94Zm35.17-16.12l-38.19,3.25-.5-5.89,38.18-3.25.5,5.89Z"/><path class="cls-2" d="m267.23,493.18l-41.75-1.74.24-5.84,41.75,1.74-.24,5.84Z"/><path class="cls-2" d="m268.12,472.22l-40.99-8.08,1.16-5.92,4.77,1.12,36.19,7.14-1.14,5.74Zm5.74-29.11l-43.25,20.31-2.32-5.21,43.19-20.33,2.38,5.22Zm0,0l-41-8.08,1.15-5.8,41,8.08-1.15,5.8Z"/><path class="cls-2" d="m287.57,406.23c-1.67,3.87-4.01,6.95-7.01,9.23-3,2.28-6.36,3.63-10.07,4.04-3.71.41-7.49-.21-11.32-1.87-3.91-1.69-6.98-4.03-9.23-7.01-2.25-2.98-3.56-6.35-3.96-10.1-.4-3.75.24-7.56,1.91-11.43.92-2.12,2.13-4.01,3.66-5.68,1.52-1.66,3.22-3.03,5.09-4.11,1.88-1.08,3.79-1.77,5.75-2.1l.98,5.56c-1.45.24-2.87.76-4.25,1.55-1.39.79-2.63,1.78-3.72,2.97-1.1,1.19-1.96,2.5-2.58,3.93-1.21,2.81-1.65,5.58-1.31,8.31.34,2.73,1.35,5.19,3.04,7.4,1.69,2.2,4.02,3.95,6.97,5.23,2.89,1.25,5.71,1.74,8.46,1.48,2.76-.26,5.26-1.22,7.49-2.88,2.24-1.66,3.97-3.91,5.2-6.76.99-2.3,1.41-4.56,1.23-6.78-.16-2.22-.88-4.22-2.15-6-1.27-1.78-3.04-3.16-5.3-4.14l1.76-5.42c3.4,1.47,6.04,3.48,7.92,6.06,1.88,2.57,2.96,5.45,3.22,8.64.27,3.19-.33,6.49-1.8,9.89Zm-14.79-9.71l-4.49-1.94,6.27-14.52,3.95,1.71-.64,2.98-5.09,11.78Z"/><path class="cls-2" d="m309.23,348.97c-.74.93-1.65,1.6-2.72,1.99-1.08.39-2.17.51-3.3.36-1.12-.15-2.15-.6-3.08-1.34s-1.61-1.64-2.01-2.7c-.4-1.06-.52-2.14-.35-3.25.17-1.11.62-2.13,1.36-3.07.75-.93,1.64-1.62,2.7-2.05,1.06-.43,2.15-.57,3.26-.42,1.12.16,2.15.6,3.09,1.35.94.74,1.6,1.64,2.01,2.7.41,1.06.53,2.16.38,3.31-.15,1.15-.6,2.19-1.34,3.13Z"/><polygon class="cls-1" points="525.59 632.38 473.86 632.38 473.34 631.68 327.87 432.91 330.64 430.88 475.6 628.94 523.85 628.94 669.21 430.88 671.98 432.92 525.59 632.38"/><polygon class="cls-1" points="523.94 629.41 475.53 629.41 339.08 435.75 341.76 433.86 477.22 626.14 522.25 626.14 658.09 433.86 660.77 435.75 523.94 629.41"/><polygon class="cls-1" points="522.41 626.54 477.09 626.54 349.57 438.5 352.15 436.75 478.74 623.42 520.75 623.42 647.71 436.75 650.29 438.5 522.41 626.54"/><polygon class="cls-1" points="520.97 623.75 478.55 623.75 478.11 623.07 359.37 441.18 361.85 439.55 480.16 620.78 519.36 620.78 638 439.55 640.49 441.18 520.97 623.75"/><polygon class="cls-1" points="519.62 621.04 479.92 621.04 479.5 620.38 368.53 443.78 370.92 442.27 481.48 618.21 518.06 618.21 628.93 442.27 631.33 443.78 519.62 621.04"/><polygon class="cls-1" points="518.36 618.41 481.2 618.41 480.81 617.76 377.09 446.3 379.39 444.91 482.72 615.71 516.84 615.71 620.46 444.91 622.76 446.31 518.36 618.41"/><polygon class="cls-1" points="517.18 615.86 482.4 615.86 482.03 615.22 385.09 448.76 387.31 447.47 483.87 613.29 515.71 613.29 612.54 447.47 614.76 448.76 517.18 615.86"/><polygon class="cls-1" points="516.08 613.38 483.52 613.38 392.58 451.14 394.71 449.95 484.95 610.94 514.65 610.94 605.15 449.95 607.28 451.15 516.08 613.38"/><polygon class="cls-1" points="515.05 610.98 484.56 610.98 399.57 453.46 401.62 452.36 485.95 608.65 513.66 608.65 598.24 452.36 600.28 453.46 515.05 610.98"/><polygon class="cls-1" points="514.08 608.65 485.55 608.65 485.23 608.05 406.11 455.72 408.08 454.69 486.89 606.43 512.74 606.43 591.78 454.69 593.74 455.72 514.08 608.65"/><polygon class="cls-1" points="513.18 606.39 486.46 606.39 486.17 605.8 412.22 457.9 414.11 456.96 487.77 604.27 511.88 604.27 585.74 456.96 587.63 457.9 513.18 606.39"/></svg>