<?xml version="1.0" encoding="UTF-8"?><svg id="Layer_1" xmlns="http://www.w3.org/2000/svg" width="1000" height="1000" viewBox="0 0 1000 1000"><defs><style>.cls-1{fill:#666;}.cls-1,.cls-2{stroke-width:0px;}.cls-2{fill:#353535;}</style></defs><polygon class="cls-1" points="517.51 463.56 482.21 463.56 481.86 463.08 382.62 327.49 384.52 326.11 483.4 461.22 516.32 461.22 615.49 326.1 617.38 327.49 517.51 463.56"/><polygon class="cls-1" points="516.38 461.54 483.35 461.54 390.28 329.42 392.1 328.14 484.51 459.31 515.23 459.31 607.9 328.14 609.72 329.42 516.38 461.54"/><polygon class="cls-1" points="515.33 459.58 484.42 459.58 397.43 331.3 399.19 330.11 485.55 457.45 514.21 457.45 600.82 330.11 602.57 331.3 515.33 459.58"/><polygon class="cls-1" points="514.35 457.67 485.42 457.67 485.12 457.21 404.11 333.13 405.81 332.02 486.52 455.65 513.26 455.65 594.19 332.02 595.89 333.13 514.35 457.67"/><polygon class="cls-1" points="513.43 455.83 486.35 455.83 486.07 455.37 410.36 334.9 411.99 333.87 487.42 453.9 512.37 453.9 588.01 333.87 589.64 334.9 513.43 455.83"/><polygon class="cls-1" points="512.58 454.03 487.23 454.03 486.96 453.59 416.2 336.62 417.77 335.67 488.26 452.19 511.54 452.19 582.23 335.67 583.8 336.63 512.58 454.03"/><polygon class="cls-1" points="511.77 452.29 488.04 452.29 487.79 451.86 421.66 338.3 423.17 337.42 489.05 450.54 510.77 450.54 576.83 337.42 578.34 338.3 511.77 452.29"/><polygon class="cls-1" points="511.02 450.6 488.81 450.6 426.77 339.93 428.22 339.11 489.78 448.94 510.04 448.94 571.78 339.11 573.23 339.93 511.02 450.6"/><polygon class="cls-1" points="510.32 448.96 489.52 448.96 431.54 341.51 432.94 340.75 490.47 447.38 509.37 447.38 567.07 340.75 568.46 341.51 510.32 448.96"/><polygon class="cls-1" points="509.66 447.37 490.19 447.37 489.98 446.97 436 343.04 437.34 342.35 491.11 445.86 508.74 445.86 562.66 342.35 564 343.05 509.66 447.37"/><polygon class="cls-1" points="509.04 445.83 490.82 445.83 490.62 445.43 440.17 344.54 441.46 343.89 491.71 444.39 508.15 444.39 558.54 343.89 559.83 344.54 509.04 445.83"/><path class="cls-2" d="m352.21,661.35v-.07c0-6.93,5.19-12.61,12.58-12.61,4.49,0,7.21,1.57,9.55,3.8l-2.75,3.17c-1.95-1.81-4.04-3.03-6.83-3.03-4.67,0-8.05,3.83-8.05,8.61v.07c0,4.77,3.38,8.68,8.05,8.68,3,0,4.91-1.22,7-3.17l2.75,2.79c-2.54,2.65-5.33,4.32-9.9,4.32-7.11,0-12.4-5.54-12.4-12.54Z"/><path class="cls-2" d="m384.02,661.35v-.07c0-6.86,5.3-12.61,12.79-12.61s12.72,5.68,12.72,12.54v.07c0,6.86-5.3,12.61-12.79,12.61s-12.72-5.68-12.72-12.54Zm21.01,0v-.07c0-4.74-3.45-8.67-8.29-8.67s-8.22,3.87-8.22,8.61v.07c0,4.74,3.45,8.68,8.29,8.68s8.22-3.87,8.22-8.61Z"/><path class="cls-2" d="m421.78,649.09h3.97l13.07,16.86v-16.86h4.22v24.39h-3.59l-13.45-17.35v17.35h-4.22v-24.39Z"/><path class="cls-2" d="m454.68,669.92l2.58-3.06c2.33,2.02,4.67,3.17,7.7,3.17,2.65,0,4.32-1.22,4.32-3.07v-.07c0-1.74-.98-2.68-5.51-3.73-5.19-1.25-8.12-2.79-8.12-7.28v-.07c0-4.18,3.48-7.07,8.33-7.07,3.55,0,6.38,1.08,8.85,3.07l-2.3,3.24c-2.2-1.64-4.39-2.51-6.62-2.51-2.51,0-3.97,1.29-3.97,2.89v.07c0,1.88,1.11,2.72,5.78,3.83,5.16,1.25,7.84,3.1,7.84,7.14v.07c0,4.56-3.59,7.28-8.71,7.28-3.73,0-7.25-1.29-10.17-3.9Z"/><path class="cls-2" d="m485.15,663.13v-14.04h4.29v13.87c0,4.53,2.33,6.97,6.17,6.97s6.13-2.3,6.13-6.79v-14.04h4.29v13.83c0,7.28-4.11,10.94-10.49,10.94s-10.38-3.66-10.38-10.73Z"/><path class="cls-2" d="m519.23,649.09h4.29v20.48h12.82v3.9h-17.11v-24.39Z"/><path class="cls-2" d="m550.36,653.06h-7.73v-3.97h19.79v3.97h-7.73v20.42h-4.32v-20.42Z"/><path class="cls-2" d="m573.66,649.09h4.28v24.39h-4.28v-24.39Z"/><path class="cls-2" d="m591.48,649.09h3.97l13.07,16.86v-16.86h4.22v24.39h-3.59l-13.45-17.35v17.35h-4.22v-24.39Z"/><path class="cls-2" d="m624.97,661.35v-.07c0-6.83,5.23-12.61,12.58-12.61,4.25,0,6.86,1.18,9.37,3.31l-2.72,3.24c-1.88-1.6-3.73-2.61-6.83-2.61-4.49,0-7.91,3.94-7.91,8.61v.07c0,5.02,3.31,8.71,8.29,8.71,2.3,0,4.39-.73,5.89-1.85v-4.56h-6.24v-3.73h10.38v10.24c-2.4,2.06-5.85,3.8-10.17,3.8-7.63,0-12.65-5.43-12.65-12.54Z"/><path class="cls-2" d="m275.45,619.9l-50.45-100.89h18.33l40.78,80.29,40.78-80.29h18.47l-50.59,100.89h-17.34Z"/><path class="cls-2" d="m348.79,566.89h17.19l-10.37,21.88h51.16l-35.53-69.77h19.18l50.59,100.89h-18.47l-8.24-16.2h-65.65l-7.67,16.2h-18.33l26.15-53.01Z"/><path class="cls-2" d="m538.73,604.76v15.13h-88.07v-100.89h17.58v85.76h70.48Z"/><path class="cls-2" d="m626.98,519v14.85h-47.56v86.05h-17.73v-86.05h-47.42v-14.85h112.71Z"/><path class="cls-2" d="m639.43,519h17.58v100.89h-17.58v-100.89Z"/><path class="cls-2" d="m721.38,581.85l-30.56,38.05h-23.06l42.52-51.74-39.49-49.15h21.33l82.88,100.89h-22.92l-30.7-38.05Zm11.39-40.21l17.87-22.63h21.33l-28.25,36.03-10.95-13.4Z"/></svg>