<?xml version="1.0" standalone="no"?>
<!DOCTYPE svg PUBLIC "-//W3C//DTD SVG 20010904//EN"
 "http://www.w3.org/TR/2001/REC-SVG-20010904/DTD/svg10.dtd">
<svg version="1.0" xmlns="http://www.w3.org/2000/svg"
 width="832.000000pt" height="283.000000pt" viewBox="0 0 832.000000 283.000000"
 preserveAspectRatio="xMidYMid meet">

<g transform="translate(0.000000,283.000000) scale(0.100000,-0.100000)"
fill="#000000" stroke="none">
<path d="M545 1720 l365 -730 125 0 125 0 365 730 365 730 -132 0 -133 0 -290
-571 c-160 -314 -294 -571 -299 -571 -5 0 -139 257 -299 571 l-289 571 -134 0
-134 0 365 -730z"/>
<path d="M2303 2438 c2 -7 117 -233 255 -503 l250 -490 -184 -3 c-101 -1 -267
-1 -368 0 l-185 3 41 85 c22 47 55 118 74 158 l33 73 -124 -3 -125 -3 -189
-382 -190 -383 133 0 133 0 57 120 57 120 472 0 472 0 61 -118 61 -117 132 -3
c72 -1 131 0 131 3 0 3 -163 331 -362 730 l-363 725 -139 0 c-106 0 -137 -3
-133 -12z"/>
<path d="M3440 1720 l0 -730 640 0 640 0 0 110 0 110 -510 0 -510 0 0 620 0
620 -130 0 -130 0 0 -730z"/>
<path d="M4360 2345 l0 -105 345 0 345 0 0 -625 0 -625 125 0 125 0 2 623 3
622 343 3 342 2 0 105 0 105 -815 0 -815 0 0 -105z"/>
<path d="M6170 1720 l0 -730 130 0 130 0 0 730 0 730 -130 0 -130 0 0 -730z"/>
<path d="M6637 2438 c5 -7 130 -163 277 -346 147 -183 269 -338 272 -345 4
-11 -210 -278 -543 -680 l-65 -77 169 0 168 0 200 250 c110 138 209 262 221
276 l21 25 222 -275 223 -276 165 0 165 0 -19 24 c-10 14 -279 342 -598 730
l-580 706 -154 0 c-121 0 -151 -3 -144 -12z"/>
<path d="M7700 2353 c-41 -54 -98 -127 -127 -163 l-52 -67 79 -97 79 -96 54
67 c156 197 347 444 347 448 0 3 -69 5 -152 5 l-153 -1 -75 -96z"/>
<path d="M2150 568 c-76 -22 -130 -94 -130 -174 0 -52 37 -123 78 -151 67 -44
178 -37 226 16 15 16 15 19 -3 35 -18 16 -21 16 -52 -3 -53 -33 -104 -28 -145
13 -30 30 -34 40 -34 85 0 59 19 95 61 117 39 20 78 18 119 -7 l34 -21 19 23
c18 23 18 23 -5 40 -22 17 -94 40 -120 38 -7 0 -29 -5 -48 -11z"/>
<path d="M2618 570 c-83 -26 -138 -96 -138 -176 0 -52 37 -123 78 -151 72 -48
176 -38 237 22 59 59 69 158 25 230 -36 58 -138 96 -202 75z m102 -65 c81 -42
80 -178 -1 -221 -82 -42 -169 15 -169 111 0 97 87 153 170 110z"/>
<path d="M3596 570 c-47 -15 -76 -49 -76 -91 0 -21 3 -45 6 -54 8 -19 65 -50
114 -60 19 -4 42 -13 52 -19 21 -12 24 -46 6 -64 -19 -19 -89 -14 -127 9 -31
19 -35 19 -50 5 -24 -25 -3 -48 62 -70 68 -22 113 -16 157 20 24 21 30 34 30
66 0 66 -12 77 -134 120 -47 16 -66 40 -50 66 15 24 66 27 110 6 35 -17 37
-17 50 1 20 27 18 35 -18 49 -48 19 -99 25 -132 16z"/>
<path d="M6085 565 c-143 -50 -164 -254 -35 -329 49 -29 140 -28 198 2 l42 22
0 75 0 75 -75 0 c-73 0 -75 -1 -75 -25 0 -23 4 -25 45 -25 45 0 45 0 45 -35 0
-29 -5 -37 -26 -45 -90 -35 -174 22 -174 117 0 95 89 148 177 107 33 -16 35
-16 55 3 l20 21 -26 17 c-25 17 -86 35 -116 34 -8 0 -33 -6 -55 -14z"/>
<path d="M3030 395 l0 -175 30 0 29 0 3 119 3 118 90 -116 c71 -91 97 -117
118 -119 l27 -3 0 175 0 176 -30 0 -29 0 -3 -117 -3 -117 -90 117 c-76 99 -94
117 -117 117 l-28 0 0 -175z"/>
<path d="M3940 458 c0 -62 5 -130 10 -150 22 -79 121 -118 208 -82 70 30 82
61 82 216 l0 128 -30 0 -30 0 0 -125 c0 -120 -1 -127 -25 -150 -32 -33 -84
-33 -122 -1 -27 24 -28 27 -32 150 l-3 126 -29 0 -29 0 0 -112z"/>
<path d="M4430 395 l0 -175 125 0 125 0 0 25 c0 25 -1 25 -90 25 l-90 0 0 150
0 150 -35 0 -35 0 0 -175z"/>
<path d="M4772 543 c3 -26 7 -28 56 -31 l52 -3 0 -145 0 -144 35 0 35 0 0 145
0 145 55 0 c54 0 55 0 55 30 l0 30 -146 0 -145 0 3 -27z"/>
<path d="M5220 395 l0 -175 30 0 30 0 0 175 0 175 -30 0 -30 0 0 -175z"/>
<path d="M5480 395 l0 -175 30 0 29 0 3 121 3 121 94 -121 c81 -105 97 -121
122 -121 l29 0 0 175 0 175 -30 0 -30 0 0 -115 c0 -63 -3 -115 -7 -115 -5 0
-48 52 -97 115 -76 100 -92 115 -117 115 l-29 0 0 -175z"/>
</g>
</svg>
